<svg width="197" height="197" viewBox="0 0 197 197" fill="none" xmlns="http://www.w3.org/2000/svg">
<path d="M12.1724 10.2828C12.1724 11.0745 12.8141 11.7161 13.6058 11.7161C14.3974 11.7161 15.0391 11.0745 15.0391 10.2828C15.0391 9.49109 14.3974 8.84943 13.6058 8.84943C12.8141 8.84943 12.1724 9.49109 12.1724 10.2828ZM12.0132 10.2828C12.0132 9.40319 12.7262 8.69016 13.6058 8.69016C14.4853 8.69016 15.1983 9.40319 15.1983 10.2828C15.1983 11.1624 14.4853 11.8754 13.6058 11.8754C12.7262 11.8754 12.0132 11.1624 12.0132 10.2828Z" fill="black"/>
<path d="M11.5991 29.5173C11.5991 30.6256 12.4975 31.524 13.6058 31.524C14.714 31.524 15.6124 30.6256 15.6124 29.5173C15.6124 28.409 14.714 27.5106 13.6058 27.5106C12.4975 27.5106 11.5991 28.409 11.5991 29.5173ZM11.3761 29.5173C11.3761 28.2859 12.3744 27.2876 13.6058 27.2876C14.8372 27.2876 15.8354 28.2859 15.8354 29.5173C15.8354 30.7487 14.8372 31.747 13.6058 31.747C12.3744 31.747 11.3761 30.7487 11.3761 29.5173Z" fill="black"/>
<path d="M11.0257 48.7518C11.0257 50.1767 12.1808 51.3319 13.6058 51.3319C15.0307 51.3319 16.1858 50.1767 16.1858 48.7518C16.1858 47.3269 15.0307 46.1717 13.6058 46.1717C12.1808 46.1717 11.0257 47.3269 11.0257 48.7518ZM10.7391 48.7518C10.7391 47.1686 12.0225 45.8851 13.6058 45.8851C15.189 45.8851 16.4725 47.1686 16.4725 48.7518C16.4725 50.335 15.189 51.6185 13.6058 51.6185C12.0225 51.6185 10.7391 50.335 10.7391 48.7518Z" fill="black"/>
<path d="M10.4524 67.9864C10.4524 69.7278 11.8642 71.1399 13.6058 71.1399C15.3473 71.1399 16.7592 69.7278 16.7592 67.9864C16.7592 66.2449 15.3473 64.8328 13.6058 64.8328C11.8642 64.8328 10.4524 66.2449 10.4524 67.9864ZM10.1021 67.9864C10.1021 66.0512 11.6707 64.4826 13.6058 64.4826C15.5409 64.4826 17.1095 66.0512 17.1095 67.9864C17.1095 69.9215 15.5409 71.4901 13.6058 71.4901C11.6707 71.4901 10.1021 69.9215 10.1021 67.9864Z" fill="black"/>
<path d="M9.87907 87.2209C9.87907 89.279 11.5475 90.9476 13.6058 90.9476C15.664 90.9476 17.3325 89.279 17.3325 87.2209C17.3325 85.1628 15.664 83.4942 13.6058 83.4942C11.5475 83.4942 9.87907 85.1628 9.87907 87.2209ZM9.465 87.2209C9.465 84.9339 11.3189 83.0801 13.6058 83.0801C15.8927 83.0801 17.7465 84.9339 17.7465 87.2209C17.7465 89.5079 15.8927 91.3617 13.6058 91.3617C11.3189 91.3617 9.465 89.5079 9.465 87.2209Z" fill="black"/>
<path d="M9.3057 106.455C9.3057 108.83 11.2309 110.755 13.6058 110.755C15.9806 110.755 17.9058 108.83 17.9058 106.455C17.9058 104.081 15.9806 102.155 13.6058 102.155C11.2309 102.155 9.3057 104.081 9.3057 106.455ZM8.82793 106.455C8.82793 103.817 10.967 101.678 13.6058 101.678C16.2445 101.678 18.3836 103.817 18.3836 106.455C18.3836 109.094 16.2445 111.233 13.6058 111.233C10.967 111.233 8.82793 109.094 8.82793 106.455Z" fill="black"/>
<path d="M8.73236 125.69C8.73236 128.381 10.9142 130.563 13.6058 130.563C16.2973 130.563 18.4792 128.381 18.4792 125.69C18.4792 122.998 16.2973 120.816 13.6058 120.816C10.9142 120.816 8.73236 122.998 8.73236 125.69ZM8.19084 125.69C8.19084 122.699 10.6152 120.275 13.6058 120.275C16.5964 120.275 19.0207 122.699 19.0207 125.69C19.0207 128.681 16.5964 131.105 13.6058 131.105C10.6152 131.105 8.19084 128.681 8.19084 125.69Z" fill="black"/>
<path d="M8.15899 144.924C8.15899 147.933 10.5977 150.371 13.6058 150.371C16.6139 150.371 19.0525 147.933 19.0525 144.924C19.0525 141.916 16.6139 139.478 13.6058 139.478C10.5977 139.478 8.15899 141.916 8.15899 144.924ZM7.55377 144.924C7.55377 141.582 10.2634 138.873 13.6058 138.873C16.9482 138.873 19.6578 141.582 19.6578 144.924C19.6578 148.267 16.9482 150.976 13.6058 150.976C10.2634 150.976 7.55377 148.267 7.55377 144.924Z" fill="black"/>
<path d="M7.58565 164.159C7.58565 167.484 10.281 170.179 13.6058 170.179C16.9306 170.179 19.6259 167.484 19.6259 164.159C19.6259 160.834 16.9306 158.139 13.6058 158.139C10.281 158.139 7.58565 160.834 7.58565 164.159ZM6.91678 164.159C6.91678 160.465 9.91153 157.47 13.6058 157.47C17.3 157.47 20.2948 160.465 20.2948 164.159C20.2948 167.853 17.3 170.848 13.6058 170.848C9.91153 170.848 6.91678 167.853 6.91678 164.159Z" fill="black"/>
<path d="M7.01228 183.394C7.01228 187.035 9.96435 189.987 13.6058 189.987C17.2472 189.987 20.1993 187.035 20.1993 183.394C20.1993 179.752 17.2472 176.8 13.6058 176.8C9.96435 176.8 7.01228 179.752 7.01228 183.394ZM6.27971 183.394C6.27971 179.348 9.55968 176.068 13.6058 176.068C17.6519 176.068 20.9318 179.348 20.9318 183.394C20.9318 187.439 17.6519 190.72 13.6058 190.72C9.55968 190.72 6.27971 187.439 6.27971 183.394Z" fill="black"/>
<path d="M31.5317 10.2828C31.5317 11.0056 32.1175 11.5915 32.8404 11.5915C33.5632 11.5915 34.1491 11.0056 34.1491 10.2828C34.1491 9.55994 33.5632 8.97405 32.8404 8.97405C32.1175 8.97405 31.5317 9.55994 31.5317 10.2828ZM31.3862 10.2828C31.3862 9.47973 32.0373 8.82865 32.8404 8.82865C33.6434 8.82865 34.2945 9.47973 34.2945 10.2828C34.2945 11.0858 33.6434 11.7369 32.8404 11.7369C32.0373 11.7369 31.3862 11.0858 31.3862 10.2828Z" fill="black"/>
<path d="M31.0083 29.5173C31.0083 30.5292 31.8284 31.3494 32.8404 31.3494C33.8523 31.3494 34.6725 30.5292 34.6725 29.5173C34.6725 28.5054 33.8523 27.6852 32.8404 27.6852C31.8284 27.6852 31.0083 28.5054 31.0083 29.5173ZM30.8046 29.5173C30.8046 28.393 31.7161 27.4815 32.8404 27.4815C33.9646 27.4815 34.8762 28.393 34.8762 29.5173C34.8762 30.6416 33.9646 31.5531 32.8404 31.5531C31.7161 31.5531 30.8046 30.6416 30.8046 29.5173Z" fill="black"/>
<path d="M30.4847 48.7518C30.4847 50.0529 31.5393 51.1075 32.8404 51.1075C34.1414 51.1075 35.196 50.0529 35.196 48.7518C35.196 47.4508 34.1414 46.3962 32.8404 46.3962C31.5393 46.3962 30.4847 47.4508 30.4847 48.7518ZM30.2229 48.7518C30.2229 47.3062 31.3947 46.1344 32.8404 46.1344C34.286 46.1344 35.4578 47.3062 35.4578 48.7518C35.4578 50.1975 34.286 51.3693 32.8404 51.3693C31.3947 51.3693 30.2229 50.1975 30.2229 48.7518Z" fill="black"/>
<path d="M29.9611 67.9864C29.9611 69.5765 31.2502 70.8656 32.8404 70.8656C34.4305 70.8656 35.7196 69.5765 35.7196 67.9864C35.7196 66.3962 34.4305 65.1071 32.8404 65.1071C31.2502 65.1071 29.9611 66.3962 29.9611 67.9864ZM29.6413 67.9864C29.6413 66.2195 31.0735 64.7873 32.8404 64.7873C34.6073 64.7873 36.0395 66.2195 36.0395 67.9864C36.0395 69.7532 34.6073 71.1854 32.8404 71.1854C31.0735 71.1854 29.6413 69.7532 29.6413 67.9864Z" fill="black"/>
<path d="M29.4378 87.2209C29.4378 89.1003 30.9612 90.6235 32.8404 90.6235C34.7196 90.6235 36.243 89.1003 36.243 87.2209C36.243 85.3415 34.7196 83.8183 32.8404 83.8183C30.9612 83.8183 29.4378 85.3415 29.4378 87.2209ZM29.0596 87.2209C29.0596 85.133 30.7525 83.4401 32.8404 83.4401C34.9283 83.4401 36.6211 85.133 36.6211 87.2209C36.6211 89.3088 34.9283 91.0016 32.8404 91.0016C30.7525 91.0016 29.0596 89.3088 29.0596 87.2209Z" fill="black"/>
<path d="M28.9142 106.455C28.9142 108.624 30.6721 110.382 32.8404 110.382C35.0087 110.382 36.7665 108.624 36.7665 106.455C36.7665 104.287 35.0087 102.529 32.8404 102.529C30.6721 102.529 28.9142 104.287 28.9142 106.455ZM28.478 106.455C28.478 104.046 30.431 102.093 32.8404 102.093C35.2497 102.093 37.2028 104.046 37.2028 106.455C37.2028 108.865 35.2497 110.818 32.8404 110.818C30.431 110.818 28.478 108.865 28.478 106.455Z" fill="black"/>
<path d="M28.3906 125.69C28.3906 128.147 30.383 130.14 32.8404 130.14C35.2978 130.14 37.2901 128.147 37.2901 125.69C37.2901 123.233 35.2978 121.24 32.8404 121.24C30.383 121.24 28.3906 123.233 28.3906 125.69ZM27.8963 125.69C27.8963 122.959 30.1098 120.746 32.8404 120.746C35.5709 120.746 37.7844 122.959 37.7844 125.69C37.7844 128.42 35.5709 130.634 32.8404 130.634C30.1098 130.634 27.8963 128.42 27.8963 125.69Z" fill="black"/>
<path d="M27.8673 144.924C27.8673 147.671 30.0939 149.898 32.8404 149.898C35.5869 149.898 37.8135 147.671 37.8135 144.924C37.8135 142.178 35.5869 139.951 32.8404 139.951C30.0939 139.951 27.8673 142.178 27.8673 144.924ZM27.3147 144.924C27.3147 141.873 29.7886 139.399 32.8404 139.399C35.8921 139.399 38.3661 141.873 38.3661 144.924C38.3661 147.976 35.8921 150.45 32.8404 150.45C29.7886 150.45 27.3147 147.976 27.3147 144.924Z" fill="black"/>
<path d="M27.3437 164.159C27.3437 167.195 29.8046 169.656 32.8404 169.656C35.8762 169.656 38.337 167.195 38.337 164.159C38.337 161.123 35.8762 158.662 32.8404 158.662C29.8046 158.662 27.3437 161.123 27.3437 164.159ZM26.733 164.159C26.733 160.786 29.4674 158.052 32.8404 158.052C36.2134 158.052 38.9477 160.786 38.9477 164.159C38.9477 167.532 36.2134 170.266 32.8404 170.266C29.4674 170.266 26.733 167.532 26.733 164.159Z" fill="black"/>
<path d="M26.8203 183.394C26.8203 186.718 29.5155 189.414 32.8404 189.414C36.1653 189.414 38.8604 186.718 38.8604 183.394C38.8604 180.069 36.1653 177.373 32.8404 177.373C29.5155 177.373 26.8203 180.069 26.8203 183.394ZM26.1513 183.394C26.1513 179.699 29.1462 176.704 32.8404 176.704C36.5346 176.704 39.5294 179.699 39.5294 183.394C39.5294 187.088 36.5346 190.083 32.8404 190.083C29.1462 190.083 26.1513 187.088 26.1513 183.394Z" fill="black"/>
<path d="M50.8909 10.2828C50.8909 10.9368 51.421 11.4668 52.075 11.4668C52.729 11.4668 53.2591 10.9368 53.2591 10.2828C53.2591 9.62881 52.729 9.09871 52.075 9.09871C51.421 9.09871 50.8909 9.62881 50.8909 10.2828ZM50.7593 10.2828C50.7593 9.5561 51.3483 8.96713 52.075 8.96713C52.8017 8.96713 53.3906 9.5561 53.3906 10.2828C53.3906 11.0095 52.8017 11.5984 52.075 11.5984C51.3483 11.5984 50.7593 11.0095 50.7593 10.2828Z" fill="black"/>
<path d="M50.4173 29.5173C50.4173 30.4329 51.1594 31.1749 52.075 31.1749C52.9905 31.1749 53.7326 30.4329 53.7326 29.5173C53.7326 28.6017 52.9905 27.8597 52.075 27.8597C51.1594 27.8597 50.4173 28.6017 50.4173 29.5173ZM50.2331 29.5173C50.2331 28.5 51.0577 27.6754 52.075 27.6754C53.0923 27.6754 53.9169 28.5 53.9169 29.5173C53.9169 30.5346 53.0923 31.3592 52.075 31.3592C51.0577 31.3592 50.2331 30.5346 50.2331 29.5173Z" fill="black"/>
<path d="M49.9436 48.7518C49.9436 49.929 50.8978 50.8832 52.075 50.8832C53.2521 50.8832 54.2064 49.929 54.2064 48.7518C54.2064 47.5747 53.2521 46.6204 52.075 46.6204C50.8978 46.6204 49.9436 47.5747 49.9436 48.7518ZM49.7068 48.7518C49.7068 47.4439 50.767 46.3837 52.075 46.3837C53.3829 46.3837 54.4431 47.4439 54.4431 48.7518C54.4431 50.0598 53.3829 51.12 52.075 51.12C50.767 51.12 49.7068 50.0598 49.7068 48.7518Z" fill="black"/>
<path d="M49.47 67.9864C49.47 69.4249 50.6364 70.5913 52.075 70.5913C53.5135 70.5913 54.6799 69.4249 54.6799 67.9864C54.6799 66.5478 53.5135 65.3814 52.075 65.3814C50.6364 65.3814 49.47 66.5478 49.47 67.9864ZM49.1805 67.9864C49.1805 66.3878 50.4764 65.0919 52.075 65.0919C53.6736 65.0919 54.9694 66.3878 54.9694 67.9864C54.9694 69.5849 53.6736 70.8808 52.075 70.8808C50.4764 70.8808 49.1805 69.5849 49.1805 67.9864Z" fill="black"/>
<path d="M48.9965 87.2209C48.9965 88.9212 50.3746 90.2996 52.075 90.2996C53.7753 90.2996 55.1537 88.9212 55.1537 87.2209C55.1537 85.5206 53.7753 84.1422 52.075 84.1422C50.3746 84.1422 48.9965 85.5206 48.9965 87.2209ZM48.6543 87.2209C48.6543 85.3317 50.1857 83.8002 52.075 83.8002C53.9642 83.8002 55.4957 85.3317 55.4957 87.2209C55.4957 89.1101 53.9642 90.6416 52.075 90.6416C50.1857 90.6416 48.6543 89.1101 48.6543 87.2209Z" fill="black"/>
<path d="M48.5227 106.455C48.5227 108.417 50.113 110.008 52.075 110.008C54.0369 110.008 55.6272 108.417 55.6272 106.455C55.6272 104.494 54.0369 102.903 52.075 102.903C50.113 102.903 48.5227 104.494 48.5227 106.455ZM48.128 106.455C48.128 104.276 49.8951 102.508 52.075 102.508C54.2548 102.508 56.0219 104.276 56.0219 106.455C56.0219 108.635 54.2548 110.402 52.075 110.402C49.8951 110.402 48.128 108.635 48.128 106.455Z" fill="black"/>
<path d="M48.0492 125.69C48.0492 127.913 49.8515 129.716 52.075 129.716C54.2985 129.716 56.1008 127.913 56.1008 125.69C56.1008 123.466 54.2985 121.664 52.075 121.664C49.8515 121.664 48.0492 123.466 48.0492 125.69ZM47.6018 125.69C47.6018 123.219 49.6045 121.217 52.075 121.217C54.5455 121.217 56.5482 123.219 56.5482 125.69C56.5482 128.16 54.5455 130.163 52.075 130.163C49.6045 130.163 47.6018 128.16 47.6018 125.69Z" fill="black"/>
<path d="M47.5754 144.924C47.5754 147.41 49.5901 149.424 52.075 149.424C54.5599 149.424 56.5745 147.41 56.5745 144.924C56.5745 142.439 54.5599 140.425 52.075 140.425C49.5901 140.425 47.5754 142.439 47.5754 144.924ZM47.0755 144.924C47.0755 142.163 49.3139 139.925 52.075 139.925C54.8361 139.925 57.0744 142.163 57.0744 144.924C57.0744 147.686 54.8361 149.924 52.075 149.924C49.3139 149.924 47.0755 147.686 47.0755 144.924Z" fill="black"/>
<path d="M47.1019 164.159C47.1019 166.906 49.3285 169.132 52.075 169.132C54.8215 169.132 57.0481 166.906 57.0481 164.159C57.0481 161.413 54.8215 159.186 52.075 159.186C49.3285 159.186 47.1019 161.413 47.1019 164.159ZM46.5493 164.159C46.5493 161.107 49.0232 158.633 52.075 158.633C55.1267 158.633 57.6007 161.107 57.6007 164.159C57.6007 167.211 55.1267 169.685 52.075 169.685C49.0232 169.685 46.5493 167.211 46.5493 164.159Z" fill="black"/>
<path d="M46.6283 183.394C46.6283 186.402 49.0669 188.84 52.075 188.84C55.0831 188.84 57.5216 186.402 57.5216 183.394C57.5216 180.385 55.0831 177.947 52.075 177.947C49.0669 177.947 46.6283 180.385 46.6283 183.394ZM46.023 183.394C46.023 180.051 48.7326 177.342 52.075 177.342C55.4174 177.342 58.1269 180.051 58.1269 183.394C58.1269 186.736 55.4174 189.446 52.075 189.446C48.7326 189.446 46.023 186.736 46.023 183.394Z" fill="black"/>
<path d="M70.2501 10.2828C70.2501 10.8679 70.7245 11.3422 71.3096 11.3422C71.8947 11.3422 72.369 10.8679 72.369 10.2828C72.369 9.69766 71.8947 9.22333 71.3096 9.22333C70.7245 9.22333 70.2501 9.69766 70.2501 10.2828ZM70.1324 10.2828C70.1324 9.63264 70.6594 9.10562 71.3096 9.10562C71.9597 9.10562 72.4867 9.63264 72.4867 10.2828C72.4867 10.9329 71.9597 11.4599 71.3096 11.4599C70.6594 11.4599 70.1324 10.9329 70.1324 10.2828Z" fill="black"/>
<path d="M69.8264 29.5173C69.8264 30.3365 70.4904 31.0005 71.3096 31.0005C72.1288 31.0005 72.7928 30.3365 72.7928 29.5173C72.7928 28.6981 72.1288 28.0341 71.3096 28.0341C70.4904 28.0341 69.8264 28.6981 69.8264 29.5173ZM69.6616 29.5173C69.6616 28.6071 70.3994 27.8693 71.3096 27.8693C72.2198 27.8693 72.9576 28.6071 72.9576 29.5173C72.9576 30.4275 72.2198 31.1653 71.3096 31.1653C70.3994 31.1653 69.6616 30.4275 69.6616 29.5173Z" fill="black"/>
<path d="M69.4027 48.7518C69.4027 49.8051 70.2563 50.6589 71.3096 50.6589C72.3629 50.6589 73.2165 49.8051 73.2165 48.7518C73.2165 47.6985 72.3629 46.8447 71.3096 46.8447C70.2563 46.8447 69.4027 47.6985 69.4027 48.7518ZM69.1907 48.7518C69.1907 47.5816 70.1393 46.6329 71.3096 46.6329C72.4798 46.6329 73.4285 47.5816 73.4285 48.7518C73.4285 49.9221 72.4798 50.8707 71.3096 50.8707C70.1393 50.8707 69.1907 49.9221 69.1907 48.7518Z" fill="black"/>
<path d="M68.9789 67.9864C68.9789 69.2735 70.0224 70.3172 71.3096 70.3172C72.5968 70.3172 73.6402 69.2735 73.6402 67.9864C73.6402 66.6992 72.5968 65.6555 71.3096 65.6555C70.0224 65.6555 68.9789 66.6992 68.9789 67.9864ZM68.7198 67.9864C68.7198 66.5561 69.8793 65.3966 71.3096 65.3966C72.7399 65.3966 73.8993 66.5561 73.8993 67.9864C73.8993 69.4166 72.7399 70.5761 71.3096 70.5761C69.8793 70.5761 68.7198 69.4166 68.7198 67.9864Z" fill="black"/>
<path d="M68.5552 87.2209C68.5552 88.7421 69.7883 89.9753 71.3096 89.9753C72.8308 89.9753 74.064 88.7421 74.064 87.2209C74.064 85.6996 72.8308 84.4665 71.3096 84.4665C69.7883 84.4665 68.5552 85.6996 68.5552 87.2209ZM68.249 87.2209C68.249 85.5305 69.6192 84.1603 71.3096 84.1603C72.9999 84.1603 74.3702 85.5305 74.3702 87.2209C74.3702 88.9112 72.9999 90.2815 71.3096 90.2815C69.6192 90.2815 68.249 88.9112 68.249 87.2209Z" fill="black"/>
<path d="M68.1313 106.455C68.1313 108.211 69.5542 109.634 71.3096 109.634C73.0649 109.634 74.4879 108.211 74.4879 106.455C74.4879 104.7 73.0649 103.277 71.3096 103.277C69.5542 103.277 68.1313 104.7 68.1313 106.455ZM67.7781 106.455C67.7781 104.505 69.3592 102.924 71.3096 102.924C73.26 102.924 74.8411 104.505 74.8411 106.455C74.8411 108.406 73.26 109.987 71.3096 109.987C69.3592 109.987 67.7781 108.406 67.7781 106.455Z" fill="black"/>
<path d="M67.7073 125.69C67.7073 127.679 69.3201 129.292 71.3096 129.292C73.299 129.292 74.9118 127.679 74.9118 125.69C74.9118 123.701 73.299 122.088 71.3096 122.088C69.3201 122.088 67.7073 123.701 67.7073 125.69ZM67.3072 125.69C67.3072 123.48 69.0991 121.688 71.3096 121.688C73.52 121.688 75.3119 123.48 75.3119 125.69C75.3119 127.9 73.52 129.692 71.3096 129.692C69.0991 129.692 67.3072 127.9 67.3072 125.69Z" fill="black"/>
<path d="M67.2836 144.924C67.2836 147.148 69.0861 148.95 71.3096 148.95C73.5331 148.95 75.3356 147.148 75.3356 144.924C75.3356 142.701 73.5331 140.898 71.3096 140.898C69.0861 140.898 67.2836 142.701 67.2836 144.924ZM66.8364 144.924C66.8364 142.454 68.8391 140.451 71.3096 140.451C73.7801 140.451 75.7828 142.454 75.7828 144.924C75.7828 147.395 73.7801 149.398 71.3096 149.398C68.8391 149.398 66.8364 147.395 66.8364 144.924Z" fill="black"/>
<path d="M66.8598 164.159C66.8598 166.616 68.8522 168.609 71.3096 168.609C73.767 168.609 75.7593 166.616 75.7593 164.159C75.7593 161.702 73.767 159.709 71.3096 159.709C68.8522 159.709 66.8598 161.702 66.8598 164.159ZM66.3655 164.159C66.3655 161.428 68.579 159.215 71.3096 159.215C74.0401 159.215 76.2536 161.428 76.2536 164.159C76.2536 166.89 74.0401 169.103 71.3096 169.103C68.579 169.103 66.3655 166.89 66.3655 164.159Z" fill="black"/>
<path d="M66.4361 183.394C66.4361 186.085 68.6181 188.267 71.3096 188.267C74.0011 188.267 76.183 186.085 76.183 183.394C76.183 180.702 74.0011 178.52 71.3096 178.52C68.6181 178.52 66.4361 180.702 66.4361 183.394ZM65.8947 183.394C65.8947 180.403 68.319 177.979 71.3096 177.979C74.3002 177.979 76.7245 180.403 76.7245 183.394C76.7245 186.384 74.3002 188.808 71.3096 188.808C68.319 188.808 65.8947 186.384 65.8947 183.394Z" fill="black"/>
<path d="M89.6094 10.2828C89.6094 10.799 90.0277 11.2176 90.5442 11.2176C91.0606 11.2176 91.479 10.799 91.479 10.2828C91.479 9.76653 91.0606 9.34799 90.5442 9.34799C90.0277 9.34799 89.6094 9.76653 89.6094 10.2828ZM89.5055 10.2828C89.5055 9.70921 89.9706 9.24412 90.5442 9.24412C91.1178 9.24412 91.5829 9.70921 91.5829 10.2828C91.5829 10.8564 91.1178 11.3214 90.5442 11.3214C89.9706 11.3214 89.5055 10.8564 89.5055 10.2828Z" fill="black"/>
<path d="M89.2355 29.5173C89.2355 30.2401 89.8214 30.826 90.5442 30.826C91.267 30.826 91.8529 30.2401 91.8529 29.5173C91.8529 28.7945 91.267 28.2086 90.5442 28.2086C89.8214 28.2086 89.2355 28.7945 89.2355 29.5173ZM89.09 29.5173C89.09 28.7143 89.7411 28.0632 90.5442 28.0632C91.3472 28.0632 91.9983 28.7143 91.9983 29.5173C91.9983 30.3204 91.3472 30.9714 90.5442 30.9714C89.7411 30.9714 89.09 30.3204 89.09 29.5173Z" fill="black"/>
<path d="M88.8615 48.7518C88.8615 49.6812 89.615 50.4345 90.5442 50.4345C91.4734 50.4345 92.2268 49.6812 92.2268 48.7518C92.2268 47.8224 91.4734 47.0692 90.5442 47.0692C89.615 47.0692 88.8615 47.8224 88.8615 48.7518ZM88.6746 48.7518C88.6746 47.7193 89.5117 46.8822 90.5442 46.8822C91.5767 46.8822 92.4138 47.7193 92.4138 48.7518C92.4138 49.7843 91.5767 50.6214 90.5442 50.6214C89.5117 50.6214 88.6746 49.7843 88.6746 48.7518Z" fill="black"/>
<path d="M88.4876 67.9864C88.4876 69.1222 89.4084 70.0429 90.5442 70.0429C91.68 70.0429 92.6007 69.1222 92.6007 67.9864C92.6007 66.8506 91.68 65.9298 90.5442 65.9298C89.4084 65.9298 88.4876 66.8506 88.4876 67.9864ZM88.2591 67.9864C88.2591 66.7244 89.282 65.7013 90.5442 65.7013C91.8064 65.7013 92.8293 66.7244 92.8293 67.9864C92.8293 69.2483 91.8064 70.2714 90.5442 70.2714C89.282 70.2714 88.2591 69.2483 88.2591 67.9864Z" fill="black"/>
<path d="M88.1137 87.2209C88.1137 88.5633 89.2018 89.6514 90.5442 89.6514C91.8866 89.6514 92.9747 88.5633 92.9747 87.2209C92.9747 85.8785 91.8866 84.7904 90.5442 84.7904C89.2018 84.7904 88.1137 85.8785 88.1137 87.2209ZM87.8437 87.2209C87.8437 85.7294 89.0527 84.5204 90.5442 84.5204C92.0356 84.5204 93.2447 85.7294 93.2447 87.2209C93.2447 88.7123 92.0356 89.9214 90.5442 89.9214C89.0527 89.9214 87.8437 88.7123 87.8437 87.2209Z" fill="black"/>
<path d="M87.7398 106.455C87.7398 108.004 88.9952 109.26 90.5442 109.26C92.0931 109.26 93.3486 108.004 93.3486 106.455C93.3486 104.906 92.0931 103.651 90.5442 103.651C88.9952 103.651 87.7398 104.906 87.7398 106.455ZM87.4282 106.455C87.4282 104.735 88.8233 103.339 90.5442 103.339C92.2651 103.339 93.6602 104.735 93.6602 106.455C93.6602 108.176 92.2651 109.571 90.5442 109.571C88.8233 109.571 87.4282 108.176 87.4282 106.455Z" fill="black"/>
<path d="M87.3659 125.69C87.3659 127.445 88.7888 128.868 90.5442 128.868C92.2995 128.868 93.7225 127.445 93.7225 125.69C93.7225 123.935 92.2995 122.512 90.5442 122.512C88.7888 122.512 87.3659 123.935 87.3659 125.69ZM87.0127 125.69C87.0127 123.74 88.5938 122.158 90.5442 122.158C92.4946 122.158 94.0757 123.74 94.0757 125.69C94.0757 127.64 92.4946 129.221 90.5442 129.221C88.5938 129.221 87.0127 127.64 87.0127 125.69Z" fill="black"/>
<path d="M86.9919 144.924C86.9919 146.886 88.5825 148.477 90.5442 148.477C92.5059 148.477 94.0964 146.886 94.0964 144.924C94.0964 142.963 92.5059 141.372 90.5442 141.372C88.5825 141.372 86.9919 142.963 86.9919 144.924ZM86.5972 144.924C86.5972 142.745 88.3643 140.978 90.5442 140.978C92.724 140.978 94.4911 142.745 94.4911 144.924C94.4911 147.104 92.724 148.871 90.5442 148.871C88.3643 148.871 86.5972 147.104 86.5972 144.924Z" fill="black"/>
<path d="M86.618 164.159C86.618 166.327 88.3759 168.085 90.5442 168.085C92.7125 168.085 94.4704 166.327 94.4704 164.159C94.4704 161.991 92.7125 160.233 90.5442 160.233C88.3759 160.233 86.618 161.991 86.618 164.159ZM86.1818 164.159C86.1818 161.75 88.1351 159.797 90.5442 159.797C92.9533 159.797 94.9066 161.75 94.9066 164.159C94.9066 166.568 92.9533 168.521 90.5442 168.521C88.1351 168.521 86.1818 166.568 86.1818 164.159Z" fill="black"/>
<path d="M86.2441 183.394C86.2441 185.768 88.1693 187.694 90.5442 187.694C92.9191 187.694 94.8443 185.768 94.8443 183.394C94.8443 181.019 92.9191 179.093 90.5442 179.093C88.1693 179.093 86.2441 181.019 86.2441 183.394ZM85.7663 183.394C85.7663 180.755 87.9054 178.616 90.5442 178.616C93.183 178.616 95.3221 180.755 95.3221 183.394C95.3221 186.032 93.183 188.171 90.5442 188.171C87.9054 188.171 85.7663 186.032 85.7663 183.394Z" fill="black"/>
<path d="M108.969 10.2828C108.969 10.7302 109.331 11.0929 109.779 11.0929C110.226 11.0929 110.589 10.7302 110.589 10.2828C110.589 9.83538 110.226 9.47261 109.779 9.47261C109.331 9.47261 108.969 9.83538 108.969 10.2828ZM108.879 10.2828C108.879 9.78556 109.282 9.3826 109.779 9.3826C110.276 9.3826 110.679 9.78556 110.679 10.2828C110.679 10.78 110.276 11.1829 109.779 11.1829C109.282 11.1829 108.879 10.78 108.879 10.2828Z" fill="black"/>
<path d="M108.645 29.5173C108.645 30.1438 109.152 30.6516 109.779 30.6516C110.405 30.6516 110.913 30.1438 110.913 29.5173C110.913 28.8908 110.405 28.3831 109.779 28.3831C109.152 28.3831 108.645 28.8908 108.645 29.5173ZM108.519 29.5173C108.519 28.8212 109.083 28.2571 109.779 28.2571C110.475 28.2571 111.039 28.8212 111.039 29.5173C111.039 30.2134 110.475 30.7775 109.779 30.7775C109.083 30.7775 108.519 30.2134 108.519 29.5173Z" fill="black"/>
<path d="M108.32 48.7518C108.32 49.5572 108.973 50.2102 109.779 50.2102C110.584 50.2102 111.237 49.5572 111.237 48.7518C111.237 47.9465 110.584 47.2935 109.779 47.2935C108.973 47.2935 108.32 47.9465 108.32 48.7518ZM108.158 48.7518C108.158 47.857 108.884 47.1315 109.779 47.1315C110.674 47.1315 111.399 47.857 111.399 48.7518C111.399 49.6466 110.674 50.3722 109.779 50.3722C108.884 50.3722 108.158 49.6466 108.158 48.7518Z" fill="black"/>
<path d="M107.996 67.9864C107.996 68.9708 108.795 69.7688 109.779 69.7688C110.763 69.7688 111.561 68.9708 111.561 67.9864C111.561 67.0019 110.763 66.2039 109.779 66.2039C108.795 66.2039 107.996 67.0019 107.996 67.9864ZM107.798 67.9864C107.798 66.8925 108.685 66.006 109.779 66.006C110.873 66.006 111.759 66.8925 111.759 67.9864C111.759 69.0802 110.873 69.9667 109.779 69.9667C108.685 69.9667 107.798 69.0802 107.798 67.9864Z" fill="black"/>
<path d="M107.672 87.2209C107.672 88.3842 108.615 89.3273 109.779 89.3273C110.942 89.3273 111.885 88.3842 111.885 87.2209C111.885 86.0576 110.942 85.1145 109.779 85.1145C108.615 85.1145 107.672 86.0576 107.672 87.2209ZM107.438 87.2209C107.438 85.9281 108.486 84.8804 109.779 84.8804C111.072 84.8804 112.119 85.9281 112.119 87.2209C112.119 88.5136 111.072 89.5613 109.779 89.5613C108.486 89.5613 107.438 88.5136 107.438 87.2209Z" fill="black"/>
<path d="M107.348 106.455C107.348 107.798 108.436 108.886 109.779 108.886C111.121 108.886 112.209 107.798 112.209 106.455C112.209 105.113 111.121 104.025 109.779 104.025C108.436 104.025 107.348 105.113 107.348 106.455ZM107.078 106.455C107.078 104.964 108.287 103.755 109.779 103.755C111.27 103.755 112.479 104.964 112.479 106.455C112.479 107.947 111.27 109.156 109.779 109.156C108.287 109.156 107.078 107.947 107.078 106.455Z" fill="black"/>
<path d="M107.024 125.69C107.024 127.211 108.258 128.444 109.779 128.444C111.3 128.444 112.533 127.211 112.533 125.69C112.533 124.169 111.3 122.936 109.779 122.936C108.258 122.936 107.024 124.169 107.024 125.69ZM106.718 125.69C106.718 124 108.088 122.629 109.779 122.629C111.469 122.629 112.839 124 112.839 125.69C112.839 127.38 111.469 128.751 109.779 128.751C108.088 128.751 106.718 127.38 106.718 125.69Z" fill="black"/>
<path d="M106.7 144.924C106.7 146.625 108.078 148.003 109.779 148.003C111.479 148.003 112.857 146.625 112.857 144.924C112.857 143.224 111.479 141.846 109.779 141.846C108.078 141.846 106.7 143.224 106.7 144.924ZM106.358 144.924C106.358 143.035 107.89 141.504 109.779 141.504C111.668 141.504 113.199 143.035 113.199 144.924C113.199 146.814 111.668 148.345 109.779 148.345C107.89 148.345 106.358 146.814 106.358 144.924Z" fill="black"/>
<path d="M106.376 164.159C106.376 166.038 107.899 167.562 109.779 167.562C111.658 167.562 113.181 166.038 113.181 164.159C113.181 162.28 111.658 160.756 109.779 160.756C107.899 160.756 106.376 162.28 106.376 164.159ZM105.998 164.159C105.998 162.071 107.691 160.378 109.779 160.378C111.867 160.378 113.56 162.071 113.56 164.159C113.56 166.247 111.867 167.94 109.779 167.94C107.691 167.94 105.998 166.247 105.998 164.159Z" fill="black"/>
<path d="M106.052 183.394C106.052 185.452 107.721 187.12 109.779 187.12C111.837 187.12 113.506 185.452 113.506 183.394C113.506 181.335 111.837 179.667 109.779 179.667C107.721 179.667 106.052 181.335 106.052 183.394ZM105.638 183.394C105.638 181.107 107.492 179.253 109.779 179.253C112.066 179.253 113.92 181.107 113.92 183.394C113.92 185.68 112.066 187.534 109.779 187.534C107.492 187.534 105.638 185.68 105.638 183.394Z" fill="black"/>
<path d="M128.328 10.2828C128.328 10.6613 128.635 10.9683 129.013 10.9683C129.392 10.9683 129.699 10.6613 129.699 10.2828C129.699 9.90425 129.392 9.59727 129.013 9.59727C128.635 9.59727 128.328 9.90425 128.328 10.2828ZM128.252 10.2828C128.252 9.86212 128.593 9.5211 129.013 9.5211C129.434 9.5211 129.775 9.86212 129.775 10.2828C129.775 10.7034 129.434 11.0445 129.013 11.0445C128.593 11.0445 128.252 10.7034 128.252 10.2828Z" fill="black"/>
<path d="M128.054 29.5173C128.054 30.0474 128.483 30.4771 129.013 30.4771C129.543 30.4771 129.973 30.0474 129.973 29.5173C129.973 28.9872 129.543 28.5575 129.013 28.5575C128.483 28.5575 128.054 28.9872 128.054 29.5173ZM127.947 29.5173C127.947 28.9284 128.424 28.4509 129.013 28.4509C129.602 28.4509 130.08 28.9284 130.08 29.5173C130.08 30.1063 129.602 30.5837 129.013 30.5837C128.424 30.5837 127.947 30.1063 127.947 29.5173Z" fill="black"/>
<path d="M127.779 48.7518C127.779 49.4333 128.332 49.9857 129.013 49.9857C129.695 49.9857 130.247 49.4333 130.247 48.7518C130.247 48.0704 129.695 47.5179 129.013 47.5179C128.332 47.5179 127.779 48.0704 127.779 48.7518ZM127.642 48.7518C127.642 47.9946 128.256 47.3808 129.013 47.3808C129.771 47.3808 130.384 47.9946 130.384 48.7518C130.384 49.5091 129.771 50.1229 129.013 50.1229C128.256 50.1229 127.642 49.5091 127.642 48.7518Z" fill="black"/>
<path d="M127.505 67.9864C127.505 68.8194 128.181 69.4945 129.013 69.4945C129.846 69.4945 130.522 68.8194 130.522 67.9864C130.522 67.1533 129.846 66.4782 129.013 66.4782C128.181 66.4782 127.505 67.1533 127.505 67.9864ZM127.338 67.9864C127.338 67.0608 128.088 66.3106 129.013 66.3106C129.939 66.3106 130.689 67.0608 130.689 67.9864C130.689 68.9119 129.939 69.6621 129.013 69.6621C128.088 69.6621 127.338 68.9119 127.338 67.9864Z" fill="black"/>
<path d="M127.231 87.2209C127.231 88.2053 128.029 89.0034 129.013 89.0034C129.998 89.0034 130.796 88.2053 130.796 87.2209C130.796 86.2365 129.998 85.4384 129.013 85.4384C128.029 85.4384 127.231 86.2365 127.231 87.2209ZM127.033 87.2209C127.033 86.127 127.92 85.2405 129.013 85.2405C130.107 85.2405 130.994 86.127 130.994 87.2209C130.994 88.3148 130.107 89.2013 129.013 89.2013C127.92 89.2013 127.033 88.3148 127.033 87.2209Z" fill="black"/>
<path d="M126.957 106.455C126.957 107.591 127.878 108.512 129.013 108.512C130.149 108.512 131.07 107.591 131.07 106.455C131.07 105.32 130.149 104.399 129.013 104.399C127.878 104.399 126.957 105.32 126.957 106.455ZM126.728 106.455C126.728 105.193 127.751 104.17 129.013 104.17C130.276 104.17 131.298 105.193 131.298 106.455C131.298 107.718 130.276 108.74 129.013 108.74C127.751 108.74 126.728 107.718 126.728 106.455Z" fill="black"/>
<path d="M126.683 125.69C126.683 126.977 127.726 128.021 129.013 128.021C130.301 128.021 131.344 126.977 131.344 125.69C131.344 124.403 130.301 123.359 129.013 123.359C127.726 123.359 126.683 124.403 126.683 125.69ZM126.424 125.69C126.424 124.26 127.583 123.1 129.013 123.1C130.444 123.1 131.603 124.26 131.603 125.69C131.603 127.12 130.444 128.28 129.013 128.28C127.583 128.28 126.424 127.12 126.424 125.69Z" fill="black"/>
<path d="M126.408 144.924C126.408 146.363 127.575 147.529 129.013 147.529C130.452 147.529 131.618 146.363 131.618 144.924C131.618 143.486 130.452 142.32 129.013 142.32C127.575 142.32 126.408 143.486 126.408 144.924ZM126.119 144.924C126.119 143.326 127.415 142.03 129.013 142.03C130.612 142.03 131.908 143.326 131.908 144.924C131.908 146.523 130.612 147.819 129.013 147.819C127.415 147.819 126.119 146.523 126.119 144.924Z" fill="black"/>
<path d="M126.134 164.159C126.134 165.749 127.423 167.038 129.013 167.038C130.604 167.038 131.893 165.749 131.893 164.159C131.893 162.569 130.604 161.28 129.013 161.28C127.423 161.28 126.134 162.569 126.134 164.159ZM125.814 164.159C125.814 162.392 127.247 160.96 129.013 160.96C130.78 160.96 132.212 162.392 132.212 164.159C132.212 165.926 130.78 167.358 129.013 167.358C127.247 167.358 125.814 165.926 125.814 164.159Z" fill="black"/>
<path d="M125.86 183.394C125.86 185.135 127.272 186.547 129.013 186.547C130.755 186.547 132.167 185.135 132.167 183.394C132.167 181.652 130.755 180.24 129.013 180.24C127.272 180.24 125.86 181.652 125.86 183.394ZM125.51 183.394C125.51 181.458 127.078 179.89 129.013 179.89C130.949 179.89 132.517 181.458 132.517 183.394C132.517 185.329 130.949 186.897 129.013 186.897C127.078 186.897 125.51 185.329 125.51 183.394Z" fill="black"/>
<path d="M147.687 10.2828C147.687 10.5924 147.938 10.8437 148.248 10.8437C148.558 10.8437 148.809 10.5924 148.809 10.2828C148.809 9.97291 148.558 9.72189 148.248 9.72189C147.938 9.72189 147.687 9.97291 147.687 10.2828ZM147.625 10.2828C147.625 9.93847 147.904 9.65957 148.248 9.65957C148.592 9.65957 148.871 9.93847 148.871 10.2828C148.871 10.6269 148.592 10.906 148.248 10.906C147.904 10.906 147.625 10.6269 147.625 10.2828Z" fill="black"/>
<path d="M147.463 29.5173C147.463 29.951 147.814 30.3026 148.248 30.3026C148.682 30.3026 149.033 29.951 149.033 29.5173C149.033 29.0836 148.682 28.732 148.248 28.732C147.814 28.732 147.463 29.0836 147.463 29.5173ZM147.376 29.5173C147.376 29.0355 147.766 28.6448 148.248 28.6448C148.73 28.6448 149.12 29.0355 149.12 29.5173C149.12 29.9991 148.73 30.3898 148.248 30.3898C147.766 30.3898 147.376 29.9991 147.376 29.5173Z" fill="black"/>
<path d="M147.238 48.7518C147.238 49.3094 147.691 49.7615 148.248 49.7615C148.805 49.7615 149.258 49.3094 149.258 48.7518C149.258 48.1942 148.805 47.7422 148.248 47.7422C147.691 47.7422 147.238 48.1942 147.238 48.7518ZM147.126 48.7518C147.126 48.1323 147.628 47.6301 148.248 47.6301C148.868 47.6301 149.37 48.1323 149.37 48.7518C149.37 49.3714 148.868 49.8736 148.248 49.8736C147.628 49.8736 147.126 49.3714 147.126 48.7518Z" fill="black"/>
<path d="M147.014 67.9864C147.014 68.6678 147.567 69.2203 148.248 69.2203C148.929 69.2203 149.482 68.6678 149.482 67.9864C149.482 67.3049 148.929 66.7525 148.248 66.7525C147.567 66.7525 147.014 67.3049 147.014 67.9864ZM146.877 67.9864C146.877 67.2291 147.491 66.6153 148.248 66.6153C149.005 66.6153 149.619 67.2291 149.619 67.9864C149.619 68.7436 149.005 69.3574 148.248 69.3574C147.491 69.3574 146.877 68.7436 146.877 67.9864Z" fill="black"/>
<path d="M146.79 87.2209C146.79 88.0264 147.443 88.6792 148.248 88.6792C149.054 88.6792 149.706 88.0264 149.706 87.2209C149.706 86.4155 149.054 85.7625 148.248 85.7625C147.443 85.7625 146.79 86.4155 146.79 87.2209ZM146.628 87.2209C146.628 86.3261 147.353 85.6006 148.248 85.6006C149.143 85.6006 149.868 86.3261 149.868 87.2209C149.868 88.1157 149.143 88.8412 148.248 88.8412C147.353 88.8412 146.628 88.1157 146.628 87.2209Z" fill="black"/>
<path d="M146.565 106.455C146.565 107.385 147.319 108.138 148.248 108.138C149.177 108.138 149.931 107.385 149.931 106.455C149.931 105.526 149.177 104.773 148.248 104.773C147.319 104.773 146.565 105.526 146.565 106.455ZM146.378 106.455C146.378 105.423 147.215 104.586 148.248 104.586C149.281 104.586 150.118 105.423 150.118 106.455C150.118 107.488 149.281 108.325 148.248 108.325C147.215 108.325 146.378 107.488 146.378 106.455Z" fill="black"/>
<path d="M146.341 125.69C146.341 126.743 147.195 127.597 148.248 127.597C149.301 127.597 150.155 126.743 150.155 125.69C150.155 124.637 149.301 123.783 148.248 123.783C147.195 123.783 146.341 124.637 146.341 125.69ZM146.129 125.69C146.129 124.52 147.078 123.571 148.248 123.571C149.418 123.571 150.367 124.52 150.367 125.69C150.367 126.86 149.418 127.809 148.248 127.809C147.078 127.809 146.129 126.86 146.129 125.69Z" fill="black"/>
<path d="M146.117 144.924C146.117 146.102 147.071 147.056 148.248 147.056C149.425 147.056 150.379 146.102 150.379 144.924C150.379 143.747 149.425 142.793 148.248 142.793C147.071 142.793 146.117 143.747 146.117 144.924ZM145.88 144.924C145.88 143.617 146.94 142.556 148.248 142.556C149.556 142.556 150.616 143.617 150.616 144.924C150.616 146.232 149.556 147.293 148.248 147.293C146.94 147.293 145.88 146.232 145.88 144.924Z" fill="black"/>
<path d="M145.892 164.159C145.892 165.46 146.947 166.515 148.248 166.515C149.549 166.515 150.604 165.46 150.604 164.159C150.604 162.858 149.549 161.803 148.248 161.803C146.947 161.803 145.892 162.858 145.892 164.159ZM145.631 164.159C145.631 162.713 146.802 161.542 148.248 161.542C149.694 161.542 150.865 162.713 150.865 164.159C150.865 165.605 149.694 166.776 148.248 166.776C146.802 166.776 145.631 165.605 145.631 164.159Z" fill="black"/>
<path d="M145.668 183.394C145.668 184.818 146.823 185.974 148.248 185.974C149.673 185.974 150.828 184.818 150.828 183.394C150.828 181.969 149.673 180.813 148.248 180.813C146.823 180.813 145.668 181.969 145.668 183.394ZM145.381 183.394C145.381 181.81 146.665 180.527 148.248 180.527C149.831 180.527 151.115 181.81 151.115 183.394C151.115 184.977 149.831 186.26 148.248 186.26C146.665 186.26 145.381 184.977 145.381 183.394Z" fill="black"/>
<path d="M167.046 10.2828C167.046 10.5236 167.242 10.719 167.483 10.719C167.724 10.719 167.919 10.5236 167.919 10.2828C167.919 10.042 167.724 9.84655 167.483 9.84655C167.242 9.84655 167.046 10.042 167.046 10.2828ZM166.998 10.2828C166.998 10.015 167.215 9.79807 167.483 9.79807C167.75 9.79807 167.967 10.015 167.967 10.2828C167.967 10.5503 167.75 10.7675 167.483 10.7675C167.215 10.7675 166.998 10.5503 166.998 10.2828Z" fill="black"/>
<path d="M166.872 29.5173C166.872 29.8545 167.145 30.128 167.483 30.128C167.82 30.128 168.093 29.8545 168.093 29.5173C168.093 29.1801 167.82 28.9066 167.483 28.9066C167.145 28.9066 166.872 29.1801 166.872 29.5173ZM166.804 29.5173C166.804 29.1426 167.108 28.8387 167.483 28.8387C167.857 28.8387 168.161 29.1426 168.161 29.5173C168.161 29.892 167.857 30.1959 167.483 30.1959C167.108 30.1959 166.804 29.892 166.804 29.5173Z" fill="black"/>
<path d="M166.697 48.7518C166.697 49.1856 167.049 49.5372 167.483 49.5372C167.916 49.5372 168.268 49.1856 168.268 48.7518C168.268 48.3181 167.916 47.9665 167.483 47.9665C167.049 47.9665 166.697 48.3181 166.697 48.7518ZM166.61 48.7518C166.61 48.27 167.001 47.8794 167.483 47.8794C167.964 47.8794 168.355 48.27 168.355 48.7518C168.355 49.2337 167.964 49.6243 167.483 49.6243C167.001 49.6243 166.61 49.2337 166.61 48.7518Z" fill="black"/>
<path d="M166.523 67.9864C166.523 68.5165 166.952 68.9462 167.483 68.9462C168.013 68.9462 168.442 68.5165 168.442 67.9864C168.442 67.4563 168.013 67.0266 167.483 67.0266C166.952 67.0266 166.523 67.4563 166.523 67.9864ZM166.416 67.9864C166.416 67.3974 166.894 66.92 167.483 66.92C168.072 66.92 168.549 67.3974 168.549 67.9864C168.549 68.5753 168.072 69.0527 167.483 69.0527C166.894 69.0527 166.416 68.5753 166.416 67.9864Z" fill="black"/>
<path d="M166.349 87.2209C166.349 87.8474 166.856 88.3549 167.483 88.3549C168.109 88.3549 168.617 87.8474 168.617 87.2209C168.617 86.5944 168.109 86.0868 167.483 86.0868C166.856 86.0868 166.349 86.5944 166.349 87.2209ZM166.222 87.2209C166.222 86.525 166.787 85.9606 167.483 85.9606C168.179 85.9606 168.743 86.525 168.743 87.2209C168.743 87.9168 168.179 88.4811 167.483 88.4811C166.787 88.4811 166.222 87.9168 166.222 87.2209Z" fill="black"/>
<path d="M166.174 106.455C166.174 107.178 166.76 107.764 167.483 107.764C168.205 107.764 168.791 107.178 168.791 106.455C168.791 105.733 168.205 105.147 167.483 105.147C166.76 105.147 166.174 105.733 166.174 106.455ZM166.028 106.455C166.028 105.652 166.679 105.001 167.483 105.001C168.286 105.001 168.937 105.652 168.937 106.455C168.937 107.258 168.286 107.91 167.483 107.91C166.679 107.91 166.028 107.258 166.028 106.455Z" fill="black"/>
<path d="M165.999 125.69C165.999 126.509 166.663 127.173 167.483 127.173C168.302 127.173 168.966 126.509 168.966 125.69C168.966 124.871 168.302 124.207 167.483 124.207C166.663 124.207 165.999 124.871 165.999 125.69ZM165.835 125.69C165.835 124.78 166.572 124.042 167.483 124.042C168.393 124.042 169.131 124.78 169.131 125.69C169.131 126.6 168.393 127.338 167.483 127.338C166.572 127.338 165.835 126.6 165.835 125.69Z" fill="black"/>
<path d="M165.825 144.924C165.825 145.84 166.567 146.582 167.483 146.582C168.398 146.582 169.14 145.84 169.14 144.924C169.14 144.009 168.398 143.267 167.483 143.267C166.567 143.267 165.825 144.009 165.825 144.924ZM165.641 144.924C165.641 143.907 166.465 143.083 167.483 143.083C168.5 143.083 169.324 143.907 169.324 144.924C169.324 145.942 168.5 146.766 167.483 146.766C166.465 146.766 165.641 145.942 165.641 144.924Z" fill="black"/>
<path d="M165.65 164.159C165.65 165.171 166.471 165.991 167.483 165.991C168.495 165.991 169.315 165.171 169.315 164.159C169.315 163.147 168.495 162.327 167.483 162.327C166.471 162.327 165.65 163.147 165.65 164.159ZM165.447 164.159C165.447 163.035 166.358 162.123 167.483 162.123C168.607 162.123 169.518 163.035 169.518 164.159C169.518 165.283 168.607 166.195 167.483 166.195C166.358 166.195 165.447 165.283 165.447 164.159Z" fill="black"/>
<path d="M165.476 183.394C165.476 184.502 166.374 185.4 167.483 185.4C168.591 185.4 169.489 184.502 169.489 183.394C169.489 182.285 168.591 181.387 167.483 181.387C166.374 181.387 165.476 182.285 165.476 183.394ZM165.253 183.394C165.253 182.162 166.251 181.164 167.483 181.164C168.714 181.164 169.712 182.162 169.712 183.394C169.712 184.625 168.714 185.623 167.483 185.623C166.251 185.623 165.253 184.625 165.253 183.394Z" fill="black"/>
<path d="M186.406 10.2828C186.406 10.4549 186.545 10.5944 186.717 10.5944C186.889 10.5944 187.029 10.4549 187.029 10.2828C187.029 10.1106 186.889 9.97117 186.717 9.97117C186.545 9.97117 186.406 10.1106 186.406 10.2828ZM186.371 10.2828C186.371 10.0916 186.526 9.93655 186.717 9.93655C186.908 9.93655 187.063 10.0916 187.063 10.2828C187.063 10.474 186.908 10.629 186.717 10.629C186.526 10.629 186.371 10.474 186.371 10.2828Z" fill="black"/>
<path d="M186.281 29.5173C186.281 29.7581 186.476 29.9535 186.717 29.9535C186.958 29.9535 187.153 29.7581 187.153 29.5173C187.153 29.2765 186.958 29.0811 186.717 29.0811C186.476 29.0811 186.281 29.2765 186.281 29.5173ZM186.232 29.5173C186.232 29.2496 186.449 29.0326 186.717 29.0326C186.985 29.0326 187.202 29.2496 187.202 29.5173C187.202 29.785 186.985 30.002 186.717 30.002C186.449 30.002 186.232 29.785 186.232 29.5173Z" fill="black"/>
<path d="M186.156 48.7518C186.156 49.0615 186.408 49.3127 186.717 49.3127C187.027 49.3127 187.278 49.0615 187.278 48.7518C187.278 48.4422 187.027 48.1909 186.717 48.1909C186.408 48.1909 186.156 48.4422 186.156 48.7518ZM186.094 48.7518C186.094 48.4075 186.373 48.1286 186.717 48.1286C187.061 48.1286 187.34 48.4075 187.34 48.7518C187.34 49.0961 187.061 49.375 186.717 49.375C186.373 49.375 186.094 49.0961 186.094 48.7518Z" fill="black"/>
<path d="M186.032 67.9864C186.032 68.3649 186.338 68.6719 186.717 68.6719C187.096 68.6719 187.403 68.3649 187.403 67.9864C187.403 67.6078 187.096 67.3008 186.717 67.3008C186.338 67.3008 186.032 67.6078 186.032 67.9864ZM185.956 67.9864C185.956 67.5657 186.297 67.2247 186.717 67.2247C187.138 67.2247 187.479 67.5657 187.479 67.9864C187.479 68.407 187.138 68.748 186.717 68.748C186.297 68.748 185.956 68.407 185.956 67.9864Z" fill="black"/>
<path d="M185.907 87.2209C185.907 87.6683 186.27 88.0311 186.717 88.0311C187.165 88.0311 187.527 87.6683 187.527 87.2209C187.527 86.7735 187.165 86.4107 186.717 86.4107C186.27 86.4107 185.907 86.7735 185.907 87.2209ZM185.817 87.2209C185.817 86.7237 186.22 86.3207 186.717 86.3207C187.214 86.3207 187.617 86.7237 187.617 87.2209C187.617 87.7181 187.214 88.1211 186.717 88.1211C186.22 88.1211 185.817 87.7181 185.817 87.2209Z" fill="black"/>
<path d="M185.782 106.455C185.782 106.972 186.201 107.39 186.717 107.39C187.233 107.39 187.652 106.972 187.652 106.455C187.652 105.939 187.233 105.521 186.717 105.521C186.201 105.521 185.782 105.939 185.782 106.455ZM185.679 106.455C185.679 105.882 186.144 105.417 186.717 105.417C187.291 105.417 187.756 105.882 187.756 106.455C187.756 107.029 187.291 107.494 186.717 107.494C186.144 107.494 185.679 107.029 185.679 106.455Z" fill="black"/>
<path d="M185.658 125.69C185.658 126.275 186.132 126.749 186.717 126.749C187.302 126.749 187.777 126.275 187.777 125.69C187.777 125.105 187.302 124.631 186.717 124.631C186.132 124.631 185.658 125.105 185.658 125.69ZM185.54 125.69C185.54 125.04 186.067 124.513 186.717 124.513C187.367 124.513 187.894 125.04 187.894 125.69C187.894 126.34 187.367 126.867 186.717 126.867C186.067 126.867 185.54 126.34 185.54 125.69Z" fill="black"/>
<path d="M185.533 144.924C185.533 145.578 186.063 146.109 186.717 146.109C187.371 146.109 187.901 145.578 187.901 144.924C187.901 144.271 187.371 143.74 186.717 143.74C186.063 143.74 185.533 144.271 185.533 144.924ZM185.402 144.924C185.402 144.198 185.991 143.609 186.717 143.609C187.444 143.609 188.033 144.198 188.033 144.924C188.033 145.651 187.444 146.24 186.717 146.24C185.991 146.24 185.402 145.651 185.402 144.924Z" fill="black"/>
<path d="M185.408 164.159C185.408 164.882 185.994 165.468 186.717 165.468C187.44 165.468 188.026 164.882 188.026 164.159C188.026 163.436 187.44 162.85 186.717 162.85C185.994 162.85 185.408 163.436 185.408 164.159ZM185.263 164.159C185.263 163.356 185.914 162.705 186.717 162.705C187.52 162.705 188.171 163.356 188.171 164.159C188.171 164.962 187.52 165.613 186.717 165.613C185.914 165.613 185.263 164.962 185.263 164.159Z" fill="black"/>
<path d="M185.284 183.394C185.284 184.185 185.926 184.827 186.717 184.827C187.509 184.827 188.151 184.185 188.151 183.394C188.151 182.602 187.509 181.96 186.717 181.96C185.926 181.96 185.284 182.602 185.284 183.394ZM185.125 183.394C185.125 182.514 185.838 181.801 186.717 181.801C187.597 181.801 188.31 182.514 188.31 183.394C188.31 184.273 187.597 184.986 186.717 184.986C185.838 184.986 185.125 184.273 185.125 183.394Z" fill="black"/>
<path d="M3.32375 0.665507C3.32375 0.298128 3.62136 0 3.98847 0C4.35558 0 4.65319 0.298128 4.65319 0.665507C4.65319 1.03269 4.35558 1.33024 3.98847 1.33024C3.62136 1.33024 3.32375 1.03269 3.32375 0.665507Z" fill="black"/>
<path d="M2.99135 19.9C2.99135 19.3493 3.43773 18.9029 3.98847 18.9029C4.53921 18.9029 4.98559 19.3493 4.98559 19.9C4.98559 20.4507 4.53921 20.8971 3.98847 20.8971C3.43773 20.8971 2.99135 20.4507 2.99135 19.9Z" fill="black"/>
<path d="M2.65895 39.1346C2.65895 38.4004 3.25425 37.8051 3.98847 37.8051C4.72269 37.8051 5.31798 38.4004 5.31798 39.1346C5.31798 39.8688 4.72269 40.4641 3.98847 40.4641C3.25425 40.4641 2.65895 39.8688 2.65895 39.1346Z" fill="black"/>
<path d="M2.32655 58.3691C2.32655 57.4514 3.07062 56.7072 3.98847 56.7072C4.90632 56.7072 5.65038 57.4514 5.65038 58.3691C5.65038 59.2868 4.90632 60.031 3.98847 60.031C3.07062 60.031 2.32655 59.2868 2.32655 58.3691Z" fill="black"/>
<path d="M1.99415 77.6036C1.99415 76.5023 2.88706 75.6094 3.98847 75.6094C5.08987 75.6094 5.98279 76.5023 5.98279 77.6036C5.98279 78.7052 5.08987 79.5979 3.98847 79.5979C2.88706 79.5979 1.99415 78.7052 1.99415 77.6036Z" fill="black"/>
<path d="M1.66183 96.8382C1.66183 95.5531 2.70351 94.5115 3.98847 94.5115C5.27343 94.5115 6.3151 95.5531 6.3151 96.8382C6.3151 98.1232 5.27343 99.1648 3.98847 99.1648C2.70351 99.1648 1.66183 98.1232 1.66183 96.8382Z" fill="black"/>
<path d="M1.32944 116.073C1.32944 114.604 2.51995 113.414 3.98847 113.414C5.45699 113.414 6.6475 114.604 6.6475 116.073C6.6475 117.541 5.45699 118.732 3.98847 118.732C2.51995 118.732 1.32944 117.541 1.32944 116.073Z" fill="black"/>
<path d="M0.997102 135.307C0.997102 133.655 2.33632 132.316 3.98847 132.316C5.64061 132.316 6.97983 133.655 6.97983 135.307C6.97983 136.959 5.64061 138.299 3.98847 138.299C2.33632 138.299 0.997102 136.959 0.997102 135.307Z" fill="black"/>
<path d="M0.664786 154.542C0.664786 152.706 2.15284 151.218 3.98847 151.218C5.8241 151.218 7.31215 152.706 7.31215 154.542C7.31215 156.377 5.8241 157.865 3.98847 157.865C2.15284 157.865 0.664786 156.377 0.664786 154.542Z" fill="black"/>
<path d="M0.332393 173.776C0.332393 171.757 1.96922 170.12 3.98847 170.12C6.00772 170.12 7.64454 171.757 7.64454 173.776C7.64454 175.796 6.00772 177.432 3.98847 177.432C1.96922 177.432 0.332393 175.796 0.332393 173.776Z" fill="black"/>
<path d="M0 193.011C0 190.808 1.78572 189.022 3.98847 189.022C6.19121 189.022 7.97694 190.808 7.97694 193.011C7.97694 195.213 6.19121 197 3.98847 197C1.78572 197 0 195.213 0 193.011Z" fill="black"/>
<path d="M22.6137 0.665518C22.6137 0.328913 22.8865 0.0557793 23.2231 0.0557793C23.5597 0.0557793 23.8324 0.328913 23.8324 0.665518C23.8324 1.00212 23.5597 1.27486 23.2231 1.27486C22.8865 1.27486 22.6137 1.00212 22.6137 0.665518Z" fill="black"/>
<path d="M22.309 19.9C22.309 19.3951 22.7182 18.986 23.2231 18.986C23.728 18.986 24.1371 19.3951 24.1371 19.9C24.1371 20.405 23.728 20.8141 23.2231 20.8141C22.7182 20.8141 22.309 20.405 22.309 19.9Z" fill="black"/>
<path d="M22.0044 39.1346C22.0044 38.4616 22.5499 37.9159 23.2231 37.9159C23.8963 37.9159 24.4418 38.4616 24.4418 39.1346C24.4418 39.8076 23.8963 40.3533 23.2231 40.3533C22.5499 40.3533 22.0044 39.8076 22.0044 39.1346Z" fill="black"/>
<path d="M21.6997 58.3691C21.6997 57.5278 22.3818 56.8457 23.2231 56.8457C24.0644 56.8457 24.7465 57.5278 24.7465 58.3691C24.7465 59.2104 24.0644 59.8925 23.2231 59.8925C22.3818 59.8925 21.6997 59.2104 21.6997 58.3691Z" fill="black"/>
<path d="M21.395 77.6036C21.395 76.594 22.2135 75.7756 23.2231 75.7756C24.2327 75.7756 25.0511 76.594 25.0511 77.6036C25.0511 78.6132 24.2327 79.4317 23.2231 79.4317C22.2135 79.4317 21.395 78.6132 21.395 77.6036Z" fill="black"/>
<path d="M21.0904 96.8382C21.0904 95.6602 22.0453 94.7054 23.2231 94.7054C24.401 94.7054 25.3558 95.6602 25.3558 96.8382C25.3558 98.0161 24.401 98.9709 23.2231 98.9709C22.0453 98.9709 21.0904 98.0161 21.0904 96.8382Z" fill="black"/>
<path d="M20.7857 116.073C20.7857 114.726 21.877 113.635 23.2231 113.635C24.5693 113.635 25.6605 114.726 25.6605 116.073C25.6605 117.419 24.5693 118.51 23.2231 118.51C21.877 118.51 20.7857 117.419 20.7857 116.073Z" fill="black"/>
<path d="M20.481 135.307C20.481 133.793 21.7087 132.565 23.2231 132.565C24.7376 132.565 25.9652 133.793 25.9652 135.307C25.9652 136.822 24.7376 138.049 23.2231 138.049C21.7087 138.049 20.481 136.822 20.481 135.307Z" fill="black"/>
<path d="M20.1763 154.542C20.1763 152.859 21.5404 151.495 23.2231 151.495C24.9057 151.495 26.2698 152.859 26.2698 154.542C26.2698 156.224 24.9057 157.588 23.2231 157.588C21.5404 157.588 20.1763 156.224 20.1763 154.542Z" fill="black"/>
<path d="M19.8717 173.776C19.8717 171.925 21.3721 170.425 23.2231 170.425C25.074 170.425 26.5745 171.925 26.5745 173.776C26.5745 175.627 25.074 177.128 23.2231 177.128C21.3721 177.128 19.8717 175.627 19.8717 173.776Z" fill="black"/>
<path d="M19.567 193.011C19.567 190.992 21.2038 189.355 23.2231 189.355C25.2423 189.355 26.8792 190.992 26.8792 193.011C26.8792 195.03 25.2423 196.667 23.2231 196.667C21.2038 196.667 19.567 195.03 19.567 193.011Z" fill="black"/>
<path d="M41.9037 0.665511C41.9037 0.359682 42.1516 0.11156 42.4577 0.11156C42.7637 0.11156 43.0116 0.359682 43.0116 0.665511C43.0116 0.971532 42.7637 1.21946 42.4577 1.21946C42.1516 1.21946 41.9037 0.971532 41.9037 0.665511Z" fill="black"/>
<path d="M41.6267 19.9C41.6267 19.4411 41.9987 19.0691 42.4577 19.0691C42.9166 19.0691 43.2886 19.4411 43.2886 19.9C43.2886 20.359 42.9166 20.731 42.4577 20.731C41.9987 20.731 41.6267 20.359 41.6267 19.9Z" fill="black"/>
<path d="M41.3498 39.1346C41.3498 38.5227 41.8458 38.0267 42.4577 38.0267C43.0695 38.0267 43.5656 38.5227 43.5656 39.1346C43.5656 39.7464 43.0695 40.2425 42.4577 40.2425C41.8458 40.2425 41.3498 39.7464 41.3498 39.1346Z" fill="black"/>
<path d="M41.0728 58.3691C41.0728 57.6041 41.6927 56.9842 42.4577 56.9842C43.2226 56.9842 43.8426 57.6041 43.8426 58.3691C43.8426 59.134 43.2226 59.754 42.4577 59.754C41.6927 59.754 41.0728 59.134 41.0728 58.3691Z" fill="black"/>
<path d="M40.7958 77.6036C40.7958 76.6859 41.5398 75.9418 42.4577 75.9418C43.3755 75.9418 44.1195 76.6859 44.1195 77.6036C44.1195 78.5213 43.3755 79.2655 42.4577 79.2655C41.5398 79.2655 40.7958 78.5213 40.7958 77.6036Z" fill="black"/>
<path d="M40.5188 96.8382C40.5188 95.7674 41.3869 94.8993 42.4577 94.8993C43.5285 94.8993 44.3965 95.7674 44.3965 96.8382C44.3965 97.9089 43.5285 98.777 42.4577 98.777C41.3869 98.777 40.5188 97.9089 40.5188 96.8382Z" fill="black"/>
<path d="M40.2418 116.073C40.2418 114.849 41.234 113.857 42.4577 113.857C43.6814 113.857 44.6735 114.849 44.6735 116.073C44.6735 117.296 43.6814 118.289 42.4577 118.289C41.234 118.289 40.2418 117.296 40.2418 116.073Z" fill="black"/>
<path d="M39.9649 135.307C39.9649 133.931 41.0809 132.814 42.4577 132.814C43.8345 132.814 44.9505 133.931 44.9505 135.307C44.9505 136.684 43.8345 137.8 42.4577 137.8C41.0809 137.8 39.9649 136.684 39.9649 135.307Z" fill="black"/>
<path d="M39.6879 154.542C39.6879 153.012 40.9279 151.772 42.4577 151.772C43.9874 151.772 45.2275 153.012 45.2275 154.542C45.2275 156.071 43.9874 157.312 42.4577 157.312C40.9279 157.312 39.6879 156.071 39.6879 154.542Z" fill="black"/>
<path d="M39.4109 173.776C39.4109 172.094 40.775 170.73 42.4577 170.73C44.1403 170.73 45.5044 172.094 45.5044 173.776C45.5044 175.459 44.1403 176.823 42.4577 176.823C40.775 176.823 39.4109 175.459 39.4109 173.776Z" fill="black"/>
<path d="M39.1339 193.011C39.1339 191.175 40.6221 189.687 42.4577 189.687C44.2932 189.687 45.7814 191.175 45.7814 193.011C45.7814 194.846 44.2932 196.335 42.4577 196.335C40.6221 196.335 39.1339 194.846 39.1339 193.011Z" fill="black"/>
<path d="M61.1937 0.665504C61.1937 0.39045 61.4168 0.167322 61.6923 0.167322C61.9677 0.167322 62.1908 0.39045 62.1908 0.665504C62.1908 0.940942 61.9677 1.16406 61.6923 1.16406C61.4168 1.16406 61.1937 0.940942 61.1937 0.665504Z" fill="black"/>
<path d="M60.9444 19.9C60.9444 19.4869 61.2793 19.1522 61.6923 19.1522C62.1052 19.1522 62.4401 19.4869 62.4401 19.9C62.4401 20.313 62.1052 20.6479 61.6923 20.6479C61.2793 20.6479 60.9444 20.313 60.9444 19.9Z" fill="black"/>
<path d="M60.6951 39.1346C60.6951 38.5839 61.1416 38.1375 61.6923 38.1375C62.243 38.1375 62.6894 38.5839 62.6894 39.1346C62.6894 39.6852 62.243 40.1317 61.6923 40.1317C61.1416 40.1317 60.6951 39.6852 60.6951 39.1346Z" fill="black"/>
<path d="M60.4459 58.3691C60.4459 57.6807 61.0039 57.1227 61.6923 57.1227C62.3807 57.1227 62.9387 57.6807 62.9387 58.3691C62.9387 59.0575 62.3807 59.6155 61.6923 59.6155C61.0039 59.6155 60.4459 59.0575 60.4459 58.3691Z" fill="black"/>
<path d="M60.1966 77.6036C60.1966 76.7777 60.8663 76.1079 61.6923 76.1079C62.5182 76.1079 63.188 76.7777 63.188 77.6036C63.188 78.4297 62.5182 79.0993 61.6923 79.0993C60.8663 79.0993 60.1966 78.4297 60.1966 77.6036Z" fill="black"/>
<path d="M59.9473 96.8382C59.9473 95.8743 60.7286 95.0932 61.6923 95.0932C62.6559 95.0932 63.4372 95.8743 63.4372 96.8382C63.4372 97.802 62.6559 98.5831 61.6923 98.5831C60.7286 98.5831 59.9473 97.802 59.9473 96.8382Z" fill="black"/>
<path d="M59.698 116.073C59.698 114.971 60.5909 114.078 61.6923 114.078C62.7937 114.078 63.6865 114.971 63.6865 116.073C63.6865 117.174 62.7937 118.067 61.6923 118.067C60.5909 118.067 59.698 117.174 59.698 116.073Z" fill="black"/>
<path d="M59.4488 135.307C59.4488 134.068 60.4532 133.064 61.6923 133.064C62.9312 133.064 63.9358 134.068 63.9358 135.307C63.9358 136.546 62.9312 137.551 61.6923 137.551C60.4532 137.551 59.4488 136.546 59.4488 135.307Z" fill="black"/>
<path d="M59.1995 154.542C59.1995 153.165 60.3155 152.049 61.6923 152.049C63.0689 152.049 64.1851 153.165 64.1851 154.542C64.1851 155.918 63.0689 157.035 61.6923 157.035C60.3155 157.035 59.1995 155.918 59.1995 154.542Z" fill="black"/>
<path d="M58.9502 173.776C58.9502 172.262 60.1777 171.034 61.6923 171.034C63.2066 171.034 64.4344 172.262 64.4344 173.776C64.4344 175.291 63.2066 176.518 61.6923 176.518C60.1777 176.518 58.9502 175.291 58.9502 173.776Z" fill="black"/>
<path d="M58.7009 193.011C58.7009 191.359 60.0402 190.019 61.6923 190.019C63.3443 190.019 64.6836 191.359 64.6836 193.011C64.6836 194.663 63.3443 196.002 61.6923 196.002C60.0402 196.002 58.7009 194.663 58.7009 193.011Z" fill="black"/>
<path d="M80.4837 0.665514C80.4837 0.421236 80.6822 0.22312 80.9269 0.22312C81.1715 0.22312 81.37 0.421236 81.37 0.665514C81.37 0.910177 81.1715 1.10868 80.9269 1.10868C80.6822 1.10868 80.4837 0.910177 80.4837 0.665514Z" fill="black"/>
<path d="M80.2621 19.9C80.2621 19.5329 80.5599 19.2353 80.9269 19.2353C81.2939 19.2353 81.5916 19.5329 81.5916 19.9C81.5916 20.2672 81.2939 20.5648 80.9269 20.5648C80.5599 20.5648 80.2621 20.2672 80.2621 19.9Z" fill="black"/>
<path d="M80.0406 39.1346C80.0406 38.6451 80.4374 38.2482 80.9269 38.2482C81.4164 38.2482 81.8132 38.6451 81.8132 39.1346C81.8132 39.6241 81.4164 40.0209 80.9269 40.0209C80.4374 40.0209 80.0406 39.6241 80.0406 39.1346Z" fill="black"/>
<path d="M79.819 58.3691C79.819 57.7572 80.3148 57.2612 80.9269 57.2612C81.5389 57.2612 82.0348 57.7572 82.0348 58.3691C82.0348 58.9809 81.5389 59.477 80.9269 59.477C80.3148 59.477 79.819 58.9809 79.819 58.3691Z" fill="black"/>
<path d="M79.5974 77.6036C79.5974 76.8694 80.1927 76.2741 80.9269 76.2741C81.6611 76.2741 82.2564 76.8694 82.2564 77.6036C82.2564 78.3378 81.6611 78.9331 80.9269 78.9331C80.1927 78.9331 79.5974 78.3378 79.5974 77.6036Z" fill="black"/>
<path d="M79.3758 96.8382C79.3758 95.9816 80.0704 95.2871 80.9269 95.2871C81.7834 95.2871 82.478 95.9816 82.478 96.8382C82.478 97.6947 81.7834 98.3892 80.9269 98.3892C80.0704 98.3892 79.3758 97.6947 79.3758 96.8382Z" fill="black"/>
<path d="M79.1542 116.073C79.1542 115.094 79.9478 114.3 80.9269 114.3C81.9059 114.3 82.6995 115.094 82.6995 116.073C82.6995 117.052 81.9059 117.845 80.9269 117.845C79.9478 117.845 79.1542 117.052 79.1542 116.073Z" fill="black"/>
<path d="M78.9326 135.307C78.9326 134.206 79.8253 133.313 80.9269 133.313C82.0285 133.313 82.9211 134.206 82.9211 135.307C82.9211 136.409 82.0285 137.301 80.9269 137.301C79.8253 137.301 78.9326 136.409 78.9326 135.307Z" fill="black"/>
<path d="M78.7111 154.542C78.7111 153.318 79.7032 152.326 80.9269 152.326C82.1506 152.326 83.1427 153.318 83.1427 154.542C83.1427 155.765 82.1506 156.758 80.9269 156.758C79.7032 156.758 78.7111 155.765 78.7111 154.542Z" fill="black"/>
<path d="M78.4895 173.776C78.4895 172.43 79.5807 171.339 80.9269 171.339C82.2731 171.339 83.3643 172.43 83.3643 173.776C83.3643 175.122 82.2731 176.214 80.9269 176.214C79.5807 176.214 78.4895 175.122 78.4895 173.776Z" fill="black"/>
<path d="M78.2679 193.011C78.2679 191.542 79.4583 190.352 80.9269 190.352C82.3954 190.352 83.5859 191.542 83.5859 193.011C83.5859 194.478 82.3954 195.669 80.9269 195.669C79.4583 195.669 78.2679 194.478 78.2679 193.011Z" fill="black"/>
<path d="M99.7737 0.665507C99.7737 0.452004 99.9474 0.276966 100.161 0.276966C100.376 0.276966 100.549 0.452004 100.549 0.665507C100.549 0.879587 100.376 1.05328 100.161 1.05328C99.9474 1.05328 99.7737 0.879587 99.7737 0.665507Z" fill="black"/>
<path d="M99.5798 19.9C99.5798 19.5788 99.8403 19.3184 100.161 19.3184C100.483 19.3184 100.743 19.5788 100.743 19.9C100.743 20.2213 100.483 20.4817 100.161 20.4817C99.8403 20.4817 99.5798 20.2213 99.5798 19.9Z" fill="black"/>
<path d="M99.3859 39.1346C99.3859 38.7062 99.7331 38.359 100.161 38.359C100.59 38.359 100.937 38.7062 100.937 39.1346C100.937 39.5629 100.59 39.9101 100.161 39.9101C99.7331 39.9101 99.3859 39.5629 99.3859 39.1346Z" fill="black"/>
<path d="M99.1921 58.3691C99.1921 57.8336 99.6262 57.3997 100.161 57.3997C100.697 57.3997 101.131 57.8336 101.131 58.3691C101.131 58.9046 100.697 59.3385 100.161 59.3385C99.6262 59.3385 99.1921 58.9046 99.1921 58.3691Z" fill="black"/>
<path d="M98.9982 77.6036C98.9982 76.9612 99.5191 76.4403 100.161 76.4403C100.804 76.4403 101.325 76.9612 101.325 77.6036C101.325 78.246 100.804 78.7669 100.161 78.7669C99.5191 78.7669 98.9982 78.246 98.9982 77.6036Z" fill="black"/>
<path d="M98.8043 96.8382C98.8043 96.0888 99.4121 95.481 100.161 95.481C100.911 95.481 101.519 96.0888 101.519 96.8382C101.519 97.5875 100.911 98.1953 100.161 98.1953C99.4121 98.1953 98.8043 97.5875 98.8043 96.8382Z" fill="black"/>
<path d="M98.6104 116.073C98.6104 115.216 99.305 114.522 100.161 114.522C101.018 114.522 101.713 115.216 101.713 116.073C101.713 116.929 101.018 117.624 100.161 117.624C99.305 117.624 98.6104 116.929 98.6104 116.073Z" fill="black"/>
<path d="M98.4165 135.307C98.4165 134.343 99.1976 133.562 100.161 133.562C101.125 133.562 101.906 134.343 101.906 135.307C101.906 136.271 101.125 137.052 100.161 137.052C99.1976 137.052 98.4165 136.271 98.4165 135.307Z" fill="black"/>
<path d="M98.2226 154.542C98.2226 153.471 99.0907 152.603 100.161 152.603C101.232 152.603 102.1 153.471 102.1 154.542C102.1 155.613 101.232 156.481 100.161 156.481C99.0907 156.481 98.2226 155.613 98.2226 154.542Z" fill="black"/>
<path d="M98.0288 173.776C98.0288 172.598 98.9836 171.644 100.161 171.644C101.339 171.644 102.294 172.598 102.294 173.776C102.294 174.954 101.339 175.909 100.161 175.909C98.9836 175.909 98.0288 174.954 98.0288 173.776Z" fill="black"/>
<path d="M97.8349 193.011C97.8349 191.726 98.8764 190.684 100.161 190.684C101.447 190.684 102.488 191.726 102.488 193.011C102.488 194.296 101.447 195.338 100.161 195.338C98.8764 195.338 97.8349 194.296 97.8349 193.011Z" fill="black"/>
<path d="M119.064 0.665518C119.064 0.48279 119.213 0.332764 119.396 0.332764C119.58 0.332764 119.729 0.48279 119.729 0.665518C119.729 0.849015 119.58 0.997896 119.396 0.997896C119.213 0.997896 119.064 0.849015 119.064 0.665518Z" fill="black"/>
<path d="M118.898 19.9C118.898 19.6246 119.121 19.4015 119.396 19.4015C119.672 19.4015 119.895 19.6246 119.895 19.9C119.895 20.1755 119.672 20.3986 119.396 20.3986C119.121 20.3986 118.898 20.1755 118.898 19.9Z" fill="black"/>
<path d="M118.731 39.1346C118.731 38.7674 119.029 38.4698 119.396 38.4698C119.763 38.4698 120.061 38.7674 120.061 39.1346C120.061 39.5018 119.763 39.7993 119.396 39.7993C119.029 39.7993 118.731 39.5018 118.731 39.1346Z" fill="black"/>
<path d="M118.565 58.3691C118.565 57.9102 118.937 57.5382 119.396 57.5382C119.855 57.5382 120.227 57.9102 120.227 58.3691C120.227 58.828 119.855 59.2 119.396 59.2C118.937 59.2 118.565 58.828 118.565 58.3691Z" fill="black"/>
<path d="M118.399 77.6036C118.399 77.0529 118.845 76.6065 119.396 76.6065C119.947 76.6065 120.393 77.0529 120.393 77.6036C120.393 78.1543 119.947 78.6007 119.396 78.6007C118.845 78.6007 118.399 78.1543 118.399 77.6036Z" fill="black"/>
<path d="M118.233 96.8382C118.233 96.1957 118.754 95.6748 119.396 95.6748C120.039 95.6748 120.559 96.1957 120.559 96.8382C120.559 97.4806 120.039 98.0015 119.396 98.0015C118.754 98.0015 118.233 97.4806 118.233 96.8382Z" fill="black"/>
<path d="M118.067 116.073C118.067 115.339 118.662 114.743 119.396 114.743C120.13 114.743 120.726 115.339 120.726 116.073C120.726 116.807 120.13 117.402 119.396 117.402C118.662 117.402 118.067 116.807 118.067 116.073Z" fill="black"/>
<path d="M117.9 135.307C117.9 134.481 118.57 133.812 119.396 133.812C120.222 133.812 120.892 134.481 120.892 135.307C120.892 136.133 120.222 136.803 119.396 136.803C118.57 136.803 117.9 136.133 117.9 135.307Z" fill="black"/>
<path d="M117.734 154.542C117.734 153.624 118.478 152.88 119.396 152.88C120.314 152.88 121.058 153.624 121.058 154.542C121.058 155.459 120.314 156.204 119.396 156.204C118.478 156.204 117.734 155.459 117.734 154.542Z" fill="black"/>
<path d="M117.568 173.776C117.568 172.767 118.386 171.948 119.396 171.948C120.406 171.948 121.224 172.767 121.224 173.776C121.224 174.786 120.406 175.604 119.396 175.604C118.386 175.604 117.568 174.786 117.568 173.776Z" fill="black"/>
<path d="M117.402 193.011C117.402 191.909 118.295 191.017 119.396 191.017C120.498 191.017 121.39 191.909 121.39 193.011C121.39 194.113 120.498 195.005 119.396 195.005C118.295 195.005 117.402 194.113 117.402 193.011Z" fill="black"/>
<path d="M138.354 0.665511C138.354 0.511634 138.478 0.388526 138.631 0.388526C138.784 0.388526 138.908 0.511634 138.908 0.665511C138.908 0.818425 138.784 0.942495 138.631 0.942495C138.478 0.942495 138.354 0.818425 138.354 0.665511Z" fill="black"/>
<path d="M138.215 19.9C138.215 19.6706 138.401 19.4846 138.631 19.4846C138.86 19.4846 139.046 19.6706 139.046 19.9C139.046 20.1295 138.86 20.3155 138.631 20.3155C138.401 20.3155 138.215 20.1295 138.215 19.9Z" fill="black"/>
<path d="M138.077 39.1346C138.077 38.8286 138.325 38.5806 138.631 38.5806C138.937 38.5806 139.185 38.8286 139.185 39.1346C139.185 39.4406 138.937 39.6885 138.631 39.6885C138.325 39.6885 138.077 39.4406 138.077 39.1346Z" fill="black"/>
<path d="M137.938 58.3691C137.938 57.9867 138.248 57.6766 138.631 57.6766C139.013 57.6766 139.323 57.9867 139.323 58.3691C139.323 58.7515 139.013 59.0615 138.631 59.0615C138.248 59.0615 137.938 58.7515 137.938 58.3691Z" fill="black"/>
<path d="M137.8 77.6036C137.8 77.1447 138.172 76.7727 138.631 76.7727C139.09 76.7727 139.462 77.1447 139.462 77.6036C139.462 78.0626 139.09 78.4346 138.631 78.4346C138.172 78.4346 137.8 78.0626 137.8 77.6036Z" fill="black"/>
<path d="M137.661 96.8381C137.661 96.3028 138.095 95.8687 138.631 95.8687C139.166 95.8687 139.6 96.3028 139.6 96.8381C139.6 97.3734 139.166 97.8076 138.631 97.8076C138.095 97.8076 137.661 97.3734 137.661 96.8381Z" fill="black"/>
<path d="M137.523 116.073C137.523 115.461 138.019 114.965 138.631 114.965C139.243 114.965 139.739 115.461 139.739 116.073C139.739 116.685 139.243 117.181 138.631 117.181C138.019 117.181 137.523 116.685 137.523 116.073Z" fill="black"/>
<path d="M137.384 135.307C137.384 134.619 137.942 134.061 138.631 134.061C139.319 134.061 139.877 134.619 139.877 135.307C139.877 135.996 139.319 136.554 138.631 136.554C137.942 136.554 137.384 135.996 137.384 135.307Z" fill="black"/>
<path d="M137.246 154.542C137.246 153.777 137.866 153.157 138.631 153.157C139.396 153.157 140.016 153.777 140.016 154.542C140.016 155.307 139.396 155.927 138.631 155.927C137.866 155.927 137.246 155.307 137.246 154.542Z" fill="black"/>
<path d="M137.107 173.776C137.107 172.935 137.789 172.253 138.631 172.253C139.472 172.253 140.154 172.935 140.154 173.776C140.154 174.618 139.472 175.3 138.631 175.3C137.789 175.3 137.107 174.618 137.107 173.776Z" fill="black"/>
<path d="M136.969 193.011C136.969 192.093 137.713 191.349 138.631 191.349C139.548 191.349 140.293 192.093 140.293 193.011C140.293 193.928 139.548 194.673 138.631 194.673C137.713 194.673 136.969 193.928 136.969 193.011Z" fill="black"/>
<path d="M157.644 0.665522C157.644 0.542421 157.743 0.444325 157.865 0.444325C157.988 0.444325 158.087 0.542421 158.087 0.665522C158.087 0.787854 157.988 0.887095 157.865 0.887095C157.743 0.887095 157.644 0.787854 157.644 0.665522Z" fill="black"/>
<path d="M157.533 19.9C157.533 19.7165 157.682 19.5677 157.865 19.5677C158.049 19.5677 158.198 19.7165 158.198 19.9C158.198 20.0835 158.049 20.2324 157.865 20.2324C157.682 20.2324 157.533 20.0835 157.533 19.9Z" fill="black"/>
<path d="M157.422 39.1346C157.422 38.8899 157.621 38.6914 157.865 38.6914C158.11 38.6914 158.308 38.8899 158.308 39.1346C158.308 39.3792 158.11 39.5777 157.865 39.5777C157.621 39.5777 157.422 39.3792 157.422 39.1346Z" fill="black"/>
<path d="M157.311 58.3691C157.311 58.0631 157.559 57.8152 157.865 57.8152C158.171 57.8152 158.419 58.0631 158.419 58.3691C158.419 58.6751 158.171 58.923 157.865 58.923C157.559 58.923 157.311 58.6751 157.311 58.3691Z" fill="black"/>
<path d="M157.201 77.6036C157.201 77.2366 157.498 76.9389 157.865 76.9389C158.232 76.9389 158.53 77.2366 158.53 77.6036C158.53 77.9706 158.232 78.2684 157.865 78.2684C157.498 78.2684 157.201 77.9706 157.201 77.6036Z" fill="black"/>
<path d="M157.09 96.8382C157.09 96.4098 157.437 96.0626 157.865 96.0626C158.294 96.0626 158.641 96.4098 158.641 96.8382C158.641 97.2665 158.294 97.6137 157.865 97.6137C157.437 97.6137 157.09 97.2665 157.09 96.8382Z" fill="black"/>
<path d="M156.979 116.073C156.979 115.583 157.376 115.186 157.865 115.186C158.355 115.186 158.752 115.583 158.752 116.073C158.752 116.562 158.355 116.959 157.865 116.959C157.376 116.959 156.979 116.562 156.979 116.073Z" fill="black"/>
<path d="M156.868 135.307C156.868 134.757 157.315 134.31 157.865 134.31C158.416 134.31 158.862 134.757 158.862 135.307C158.862 135.858 158.416 136.304 157.865 136.304C157.315 136.304 156.868 135.858 156.868 135.307Z" fill="black"/>
<path d="M156.757 154.542C156.757 153.93 157.253 153.434 157.865 153.434C158.477 153.434 158.973 153.93 158.973 154.542C158.973 155.154 158.477 155.65 157.865 155.65C157.253 155.65 156.757 155.154 156.757 154.542Z" fill="black"/>
<path d="M156.647 173.776C156.647 173.103 157.192 172.558 157.865 172.558C158.538 172.558 159.084 173.103 159.084 173.776C159.084 174.449 158.538 174.995 157.865 174.995C157.192 174.995 156.647 174.449 156.647 173.776Z" fill="black"/>
<path d="M156.536 193.011C156.536 192.277 157.131 191.681 157.865 191.681C158.599 191.681 159.195 192.277 159.195 193.011C159.195 193.746 158.599 194.34 157.865 194.34C157.131 194.34 156.536 193.746 156.536 193.011Z" fill="black"/>
<path d="M176.934 0.665515C176.934 0.57319 177.008 0.500106 177.1 0.500106C177.192 0.500106 177.266 0.57319 177.266 0.665515C177.266 0.757264 177.192 0.831695 177.1 0.831695C177.008 0.831695 176.934 0.757264 176.934 0.665515Z" fill="black"/>
<path d="M176.851 19.9001C176.851 19.7623 176.962 19.6508 177.1 19.6508C177.238 19.6508 177.349 19.7623 177.349 19.9001C177.349 20.0378 177.238 20.1493 177.1 20.1493C176.962 20.1493 176.851 20.0378 176.851 19.9001Z" fill="black"/>
<path d="M176.767 39.1346C176.767 38.9511 176.916 38.8022 177.1 38.8022C177.283 38.8022 177.432 38.9511 177.432 39.1346C177.432 39.3181 177.283 39.4669 177.1 39.4669C176.916 39.4669 176.767 39.3181 176.767 39.1346Z" fill="black"/>
<path d="M176.684 58.3691C176.684 58.1396 176.87 57.9536 177.1 57.9536C177.329 57.9536 177.515 58.1396 177.515 58.3691C177.515 58.5986 177.329 58.7846 177.1 58.7846C176.87 58.7846 176.684 58.5986 176.684 58.3691Z" fill="black"/>
<path d="M176.601 77.6036C176.601 77.3282 176.824 77.1051 177.1 77.1051C177.375 77.1051 177.598 77.3282 177.598 77.6036C177.598 77.8791 177.375 78.1022 177.1 78.1022C176.824 78.1022 176.601 77.8791 176.601 77.6036Z" fill="black"/>
<path d="M176.518 96.8382C176.518 96.5169 176.779 96.2565 177.1 96.2565C177.421 96.2565 177.682 96.5169 177.682 96.8382C177.682 97.1594 177.421 97.4198 177.1 97.4198C176.779 97.4198 176.518 97.1594 176.518 96.8382Z" fill="black"/>
<path d="M176.435 116.073C176.435 115.706 176.733 115.408 177.1 115.408C177.467 115.408 177.765 115.706 177.765 116.073C177.765 116.44 177.467 116.737 177.1 116.737C176.733 116.737 176.435 116.44 176.435 116.073Z" fill="black"/>
<path d="M176.352 135.307C176.352 134.894 176.687 134.559 177.1 134.559C177.513 134.559 177.848 134.894 177.848 135.307C177.848 135.72 177.513 136.055 177.1 136.055C176.687 136.055 176.352 135.72 176.352 135.307Z" fill="black"/>
<path d="M176.269 154.542C176.269 154.083 176.641 153.711 177.1 153.711C177.559 153.711 177.931 154.083 177.931 154.542C177.931 155.001 177.559 155.373 177.1 155.373C176.641 155.373 176.269 155.001 176.269 154.542Z" fill="black"/>
<path d="M176.186 173.776C176.186 173.272 176.595 172.862 177.1 172.862C177.605 172.862 178.014 173.272 178.014 173.776C178.014 174.281 177.605 174.69 177.1 174.69C176.595 174.69 176.186 174.281 176.186 173.776Z" fill="black"/>
<path d="M176.103 193.011C176.103 192.46 176.549 192.014 177.1 192.014C177.651 192.014 178.097 192.46 178.097 193.011C178.097 193.561 177.651 194.007 177.1 194.007C176.549 194.007 176.103 193.561 176.103 193.011Z" fill="black"/>
<path d="M196.224 0.665508C196.224 0.603958 196.273 0.553952 196.334 0.553952C196.396 0.553952 196.446 0.603958 196.446 0.665508C196.446 0.726674 196.396 0.776295 196.334 0.776295C196.273 0.776295 196.224 0.726674 196.224 0.665508Z" fill="black"/>
<path d="M196.168 19.9C196.168 19.8083 196.243 19.7339 196.335 19.7339C196.427 19.7339 196.5 19.8083 196.5 19.9C196.5 19.9918 196.427 20.0662 196.335 20.0662C196.243 20.0662 196.168 19.9918 196.168 19.9Z" fill="black"/>
<path d="M196.113 39.1346C196.113 39.0122 196.212 38.913 196.334 38.913C196.458 38.913 196.556 39.0122 196.556 39.1346C196.556 39.2569 196.458 39.3561 196.334 39.3561C196.212 39.3561 196.113 39.2569 196.113 39.1346Z" fill="black"/>
<path d="M196.057 58.3691C196.057 58.2162 196.182 58.0921 196.334 58.0921C196.486 58.0921 196.611 58.2162 196.611 58.3691C196.611 58.522 196.486 58.6461 196.334 58.6461C196.182 58.6461 196.057 58.522 196.057 58.3691Z" fill="black"/>
<path d="M196.002 77.6036C196.002 77.4201 196.151 77.2712 196.334 77.2712C196.517 77.2712 196.667 77.4201 196.667 77.6036C196.667 77.7871 196.517 77.936 196.334 77.936C196.151 77.936 196.002 77.7871 196.002 77.6036Z" fill="black"/>
<path d="M195.947 96.8382C195.947 96.6241 196.12 96.4504 196.334 96.4504C196.548 96.4504 196.723 96.6241 196.723 96.8382C196.723 97.0522 196.548 97.2259 196.334 97.2259C196.12 97.2259 195.947 97.0522 195.947 96.8382Z" fill="black"/>
<path d="M195.891 116.073C195.891 115.828 196.09 115.63 196.334 115.63C196.579 115.63 196.777 115.828 196.777 116.073C196.777 116.317 196.579 116.516 196.334 116.516C196.09 116.516 195.891 116.317 195.891 116.073Z" fill="black"/>
<path d="M195.836 135.307C195.836 135.032 196.059 134.809 196.334 134.809C196.61 134.809 196.833 135.032 196.833 135.307C196.833 135.583 196.61 135.806 196.334 135.806C196.059 135.806 195.836 135.583 195.836 135.307Z" fill="black"/>
<path d="M195.781 154.542C195.781 154.236 196.028 153.988 196.334 153.988C196.64 153.988 196.888 154.236 196.888 154.542C196.888 154.848 196.64 155.096 196.334 155.096C196.028 155.096 195.781 154.848 195.781 154.542Z" fill="black"/>
<path d="M195.725 173.776C195.725 173.44 195.998 173.167 196.335 173.167C196.671 173.167 196.944 173.44 196.944 173.776C196.944 174.113 196.671 174.386 196.335 174.386C195.998 174.386 195.725 174.113 195.725 173.776Z" fill="black"/>
<path d="M195.67 193.011C195.67 192.644 195.967 192.346 196.334 192.346C196.702 192.346 197 192.644 197 193.011C197 193.378 196.702 193.676 196.334 193.676C195.967 193.676 195.67 193.378 195.67 193.011Z" fill="black"/>
</svg>