<svg width="203" height="35" viewBox="0 0 203 35" fill="none" xmlns="http://www.w3.org/2000/svg">
<path d="M10.7326 17.326C10.7326 20.9675 13.6846 23.9194 17.3261 23.9194C20.9675 23.9194 23.9195 20.9675 23.9195 17.326C23.9195 13.6845 20.9675 10.7326 17.3261 10.7326C13.6846 10.7326 10.7326 13.6845 10.7326 17.326ZM10 17.326C10 13.28 13.28 10 17.3261 10C21.3722 10 24.6521 13.28 24.6521 17.326C24.6521 21.372 21.3722 24.652 17.3261 24.652C13.28 24.652 10 21.372 10 17.326Z" fill="black"/>
<path d="M30.5406 17.326C30.5406 20.6507 33.2358 23.3462 36.5607 23.3462C39.8856 23.3462 42.5807 20.6507 42.5807 17.326C42.5807 14.0013 39.8856 11.3058 36.5607 11.3058C33.2358 11.3058 30.5406 14.0013 30.5406 17.326ZM29.8716 17.326C29.8716 13.6319 32.8665 10.637 36.5607 10.637C40.2549 10.637 43.2497 13.6319 43.2497 17.326C43.2497 21.0202 40.2549 24.015 36.5607 24.015C32.8665 24.015 29.8716 21.0202 29.8716 17.326Z" fill="black"/>
<path d="M50.3486 17.326C50.3486 20.3343 52.7872 22.7726 55.7953 22.7726C58.8034 22.7726 61.2419 20.3343 61.2419 17.326C61.2419 14.3177 58.8034 11.8793 55.7953 11.8793C52.7872 11.8793 50.3486 14.3177 50.3486 17.326ZM49.7433 17.326C49.7433 13.9836 52.4529 11.274 55.7953 11.274C59.1377 11.274 61.8472 13.9836 61.8472 17.326C61.8472 20.6684 59.1377 23.378 55.7953 23.378C52.4529 23.378 49.7433 20.6684 49.7433 17.326Z" fill="black"/>
<path d="M70.1564 17.326C70.1564 20.0175 72.3384 22.1995 75.0299 22.1995C77.7214 22.1995 79.9033 20.0175 79.9033 17.326C79.9033 14.6345 77.7214 12.4525 75.0299 12.4525C72.3384 12.4525 70.1564 14.6345 70.1564 17.326ZM69.6149 17.326C69.6149 14.3354 72.0393 11.9111 75.0299 11.9111C78.0205 11.9111 80.4448 14.3354 80.4448 17.326C80.4448 20.3166 78.0205 22.7409 75.0299 22.7409C72.0393 22.7409 69.6149 20.3166 69.6149 17.326Z" fill="black"/>
<path d="M89.9644 17.326C89.9644 19.7009 91.8896 21.6261 94.2645 21.6261C96.6394 21.6261 98.5646 19.7009 98.5646 17.326C98.5646 14.9512 96.6394 13.0259 94.2645 13.0259C91.8896 13.0259 89.9644 14.9512 89.9644 17.326ZM89.4866 17.326C89.4866 14.6872 91.6257 12.5481 94.2645 12.5481C96.9033 12.5481 99.0424 14.6872 99.0424 17.326C99.0424 19.9647 96.9033 22.1038 94.2645 22.1038C91.6257 22.1038 89.4866 19.9647 89.4866 17.326Z" fill="black"/>
<path d="M109.772 17.326C109.772 19.3841 111.441 21.0527 113.499 21.0527C115.557 21.0527 117.226 19.3841 117.226 17.326C117.226 15.2679 115.557 13.5993 113.499 13.5993C111.441 13.5993 109.772 15.2679 109.772 17.326ZM109.358 17.326C109.358 15.039 111.212 13.1852 113.499 13.1852C115.786 13.1852 117.64 15.039 117.64 17.326C117.64 19.613 115.786 21.4668 113.499 21.4668C111.212 21.4668 109.358 19.613 109.358 17.326Z" fill="black"/>
<path d="M129.58 17.326C129.58 19.0677 130.992 20.4795 132.734 20.4795C134.475 20.4795 135.887 19.0677 135.887 17.326C135.887 15.5843 134.475 14.1725 132.734 14.1725C130.992 14.1725 129.58 15.5843 129.58 17.326ZM129.23 17.326C129.23 15.3909 130.798 13.8223 132.734 13.8223C134.669 13.8223 136.237 15.3909 136.237 17.326C136.237 19.2612 134.669 20.8298 132.734 20.8298C130.798 20.8298 129.23 19.2612 129.23 17.326Z" fill="black"/>
<path d="M149.388 17.326C149.388 18.7509 150.543 19.9062 151.968 19.9062C153.393 19.9062 154.548 18.7509 154.548 17.326C154.548 15.9011 153.393 14.7459 151.968 14.7459C150.543 14.7459 149.388 15.9011 149.388 17.326ZM149.102 17.326C149.102 15.7428 150.385 14.4593 151.968 14.4593C153.551 14.4593 154.835 15.7428 154.835 17.326C154.835 18.9092 153.551 20.1927 151.968 20.1927C150.385 20.1927 149.102 18.9092 149.102 17.326Z" fill="black"/>
<path d="M169.196 17.326C169.196 18.4343 170.095 19.3327 171.203 19.3327C172.311 19.3327 173.21 18.4343 173.21 17.326C173.21 16.2177 172.311 15.3192 171.203 15.3192C170.095 15.3192 169.196 16.2177 169.196 17.326ZM168.973 17.326C168.973 16.0946 169.971 15.0963 171.203 15.0963C172.434 15.0963 173.433 16.0946 173.433 17.326C173.433 18.5574 172.434 19.5556 171.203 19.5556C169.971 19.5556 168.973 18.5574 168.973 17.326Z" fill="black"/>
<path d="M189.004 17.326C189.004 18.1175 189.646 18.7594 190.437 18.7594C191.229 18.7594 191.871 18.1175 191.871 17.326C191.871 16.5345 191.229 15.8927 190.437 15.8927C189.646 15.8927 189.004 16.5345 189.004 17.326ZM188.845 17.326C188.845 16.4464 189.558 15.7334 190.437 15.7334C191.317 15.7334 192.03 16.4464 192.03 17.326C192.03 18.2056 191.317 18.9187 190.437 18.9187C189.558 18.9187 188.845 18.2056 188.845 17.326Z" fill="black"/>
</svg>