<svg width="48" height="48" viewBox="0 0 48 48" fill="none" xmlns="http://www.w3.org/2000/svg">
<path d="M32.5035 35.0529C32.4768 35.1309 32.4258 35.1982 32.3581 35.2451C32.2903 35.2921 32.2094 35.316 32.127 35.3136H31.3052L31.8157 32.7669C31.8768 32.8877 31.9318 33.0114 31.9804 33.1377L32.5144 34.8043C32.5428 34.8855 32.5389 34.9745 32.5035 35.0529ZM14.5382 35.0541C14.5027 34.9757 14.4985 34.8866 14.5265 34.8052L15.0544 33.1567C15.1047 33.0242 15.1619 32.8944 15.2256 32.7677L15.7361 35.3136H14.9143C14.8411 35.3143 14.7692 35.2948 14.7064 35.2573C14.6435 35.2198 14.5922 35.1658 14.5581 35.1011C14.5505 35.0859 14.5439 35.0702 14.5382 35.0541ZM20.0708 33.0224C20.1649 33.1344 20.288 33.2184 20.4267 33.2652L21.597 35.3136H20.5995L20.0708 33.0224ZM21.3023 33.1657L22.3511 32.8673C22.6741 33.1522 23.09 33.3094 23.5206 33.3094C23.9513 33.3094 24.3672 33.1522 24.6902 32.8673L25.739 33.1657L24.5116 35.3136H22.5297L21.3023 33.1657ZM26.6146 33.2652C26.6962 33.2373 26.7729 33.1966 26.8417 33.1446C26.8889 33.1086 26.9321 33.0676 26.9705 33.0224L26.4418 35.3136H25.4443L26.6146 33.2652ZM25.2897 27.7217C24.7895 28.1277 24.1649 28.3492 23.5206 28.3492C22.8764 28.3492 22.2518 28.1277 21.7516 27.7217C21.4601 27.4829 21.2011 27.2562 20.9541 27.0254C20.9582 27.0659 20.9663 27.1064 20.9703 27.1428C21.0136 27.5002 21.0366 27.8597 21.0391 28.2196L23.5206 30.349L26.0022 28.2196C26.0047 27.8597 26.0277 27.5002 26.071 27.1428C26.075 27.1024 26.0831 27.0659 26.0872 27.0254C25.8402 27.2562 25.5812 27.4829 25.2897 27.7217ZM16.7724 31.106C16.1328 31.5715 16.0356 31.6525 16.0033 31.6848C15.9547 31.7334 15.9102 31.7901 15.8656 31.8387L16.5619 35.312H17.744L16.7724 31.106ZM21.9297 31.6363L20.687 30.9076V32.4985L21.9297 32.1463C21.9121 32.0624 21.9026 31.977 21.9014 31.8913C21.9028 31.8056 21.9123 31.7202 21.9297 31.6363ZM21.9297 31.6363L20.687 30.9076V32.4985L21.9297 32.1463C21.9121 32.0624 21.9026 31.977 21.9014 31.8913C21.9028 31.8056 21.9123 31.7202 21.9297 31.6363ZM18.671 30.4866C18.2771 30.5118 17.8888 30.5922 17.5173 30.7254L18.5738 35.312H19.768L18.675 30.5676C18.6696 30.5409 18.6683 30.5136 18.671 30.4866ZM21.9297 31.6363L20.687 30.9076V32.4985L21.9297 32.1463C21.9121 32.0624 21.9026 31.977 21.9014 31.8913C21.9028 31.8056 21.9123 31.7202 21.9297 31.6363ZM21.9297 31.6363L20.687 30.9076V32.4985L21.9297 32.1463C21.9121 32.0624 21.9026 31.977 21.9014 31.8913C21.9028 31.8056 21.9123 31.7202 21.9297 31.6363ZM23.5206 31.2841C23.0835 31.2841 22.711 31.5634 22.711 31.8913C22.711 32.2232 23.0835 32.4985 23.5206 32.4985C23.9578 32.4985 24.3303 32.2232 24.3303 31.8913C24.3303 31.5634 23.9578 31.2841 23.5206 31.2841ZM28.3703 30.4866C28.373 30.5136 28.3717 30.5409 28.3663 30.5676L27.2733 35.312H28.4675L29.524 30.7254C29.1525 30.5922 28.7642 30.5118 28.3703 30.4866ZM31.038 31.6848C31.0057 31.6525 30.9085 31.5715 30.2689 31.106L29.2973 35.312H30.4794L31.1757 31.8387C31.1311 31.7901 31.0866 31.7334 31.038 31.6848ZM23.5206 31.2841C23.0835 31.2841 22.711 31.5634 22.711 31.8913C22.711 32.2232 23.0835 32.4985 23.5206 32.4985C23.9578 32.4985 24.3303 32.2232 24.3303 31.8913C24.3303 31.5634 23.9578 31.2841 23.5206 31.2841ZM23.5206 31.2841C23.0835 31.2841 22.711 31.5634 22.711 31.8913C22.711 32.2232 23.0835 32.4985 23.5206 32.4985C23.9578 32.4985 24.3303 32.2232 24.3303 31.8913C24.3303 31.5634 23.9578 31.2841 23.5206 31.2841ZM25.1116 31.6363C25.129 31.7202 25.1385 31.8056 25.1399 31.8913C25.1387 31.977 25.1292 32.0624 25.1116 32.1463L26.3543 32.4985V30.9076L25.1116 31.6363ZM23.5206 31.2841C23.0835 31.2841 22.711 31.5634 22.711 31.8913C22.711 32.2232 23.0835 32.4985 23.5206 32.4985C23.9578 32.4985 24.3303 32.2232 24.3303 31.8913C24.3303 31.5634 23.9578 31.2841 23.5206 31.2841ZM23.5206 31.2841C23.0835 31.2841 22.711 31.5634 22.711 31.8913C22.711 32.2232 23.0835 32.4985 23.5206 32.4985C23.9578 32.4985 24.3303 32.2232 24.3303 31.8913C24.3303 31.5634 23.9578 31.2841 23.5206 31.2841ZM21.9297 31.6363L20.687 30.9076V32.4985L21.9297 32.1463C21.9121 32.0624 21.9026 31.977 21.9014 31.8913C21.9028 31.8056 21.9123 31.7202 21.9297 31.6363ZM26.3341 29.005L24.3667 30.689C24.4905 30.7559 24.6048 30.8389 24.7068 30.9359L26.075 30.1344C26.1132 30.11 26.1559 30.0935 26.2005 30.0858C26.3175 30.0633 26.438 30.0669 26.5535 30.0963C26.6689 30.1256 26.7765 30.1801 26.8685 30.2559C27.0085 30.3701 27.1055 30.5286 27.1437 30.7052L27.4676 30.1385L26.3341 29.005ZM28.3015 20.5606C28.2744 20.5724 28.2458 20.5805 28.2165 20.5849C28.195 20.5964 28.1747 20.61 28.1558 20.6253C27.9806 21.3924 27.903 22.1786 27.925 22.9652C27.9775 23.0347 28.0372 23.0985 28.1031 23.1554C28.2003 22.9773 28.3784 22.4106 28.3784 21.1435C28.3899 20.9461 28.3638 20.7483 28.3015 20.5606ZM28.0222 12.7396C27.7064 12.5493 27.0628 12.9015 26.3786 13.278C25.5407 13.7395 24.5894 14.2617 23.5206 14.2617C18.8572 14.2617 18.2581 15.885 18.2581 17.2978C18.2562 17.4821 18.2698 17.6662 18.2986 17.8483C18.3766 18.4345 18.578 18.9974 18.8896 19.5L20.7315 17.148C20.8163 17.0279 20.9246 16.9264 21.0498 16.8495C21.1751 16.7727 21.3146 16.7221 21.4601 16.7009C21.6055 16.6797 21.7537 16.6883 21.8957 16.7262C22.0377 16.7641 22.1704 16.8305 22.286 16.9213C22.6394 17.1926 23.0724 17.3401 23.5179 17.3408C23.9635 17.3415 24.397 17.1955 24.7513 16.9253C24.8667 16.8336 24.9995 16.7664 25.1418 16.7279C25.284 16.6893 25.4326 16.6802 25.5785 16.701C25.7244 16.7218 25.8645 16.7722 25.9902 16.8491C26.116 16.9259 26.2247 17.0277 26.3098 17.148L28.0465 19.3664L28.2327 19.3704C28.5924 18.7388 28.7821 18.0246 28.7832 17.2978C28.7832 13.9014 28.3703 12.942 28.0222 12.7396ZM18.8855 20.6294C18.8615 20.6096 18.8358 20.5919 18.8086 20.5768C18.7854 20.5728 18.7624 20.5674 18.7398 20.5606C18.6771 20.7482 18.651 20.9461 18.6629 21.1435C18.6629 22.4106 18.841 22.9773 18.9382 23.1554C19.0041 23.0985 19.0638 23.0347 19.1163 22.9652C19.1383 22.1799 19.0607 21.3951 18.8855 20.6294ZM25.6743 17.65C25.6531 17.6152 25.6249 17.5851 25.5915 17.5618C25.5582 17.5384 25.5203 17.5223 25.4804 17.5143C25.4404 17.5063 25.3993 17.5067 25.3595 17.5154C25.3197 17.5241 25.2821 17.541 25.2492 17.5649C24.7539 17.9446 24.1474 18.1507 23.5234 18.1515C22.8993 18.1522 22.2923 17.9475 21.7961 17.569C21.7633 17.5442 21.7257 17.5266 21.6857 17.5172C21.6456 17.5079 21.6041 17.507 21.5637 17.5146C21.5233 17.5222 21.4849 17.5382 21.4511 17.5615C21.4172 17.5848 21.3886 17.6149 21.367 17.65L19.5616 19.9574C19.5656 19.9736 19.5697 19.9938 19.5737 20.0141C19.5778 20.0333 19.5832 20.0523 19.5899 20.0707V20.0829C19.9061 21.256 20.0075 22.4765 19.8895 23.6857C19.8814 23.7667 19.8773 23.8557 19.8773 23.9448C19.8773 24.7301 20.7234 25.8474 22.2617 27.0902C22.6173 27.3795 23.0615 27.5378 23.5199 27.5385C23.9783 27.5392 24.4231 27.3824 24.7796 27.0943C26.3179 25.8474 27.164 24.7301 27.164 23.9448C27.164 23.8557 27.1599 23.7667 27.1518 23.6776C27.0391 22.5075 27.1308 21.3267 27.4231 20.1881C27.4271 20.176 27.4311 20.1517 27.4392 20.1274L27.4595 20.0545C27.4676 20.0222 27.4716 19.9898 27.4797 19.9533L25.6743 17.65ZM23.1158 23.5724H23.9255C24.0328 23.5724 24.1358 23.615 24.2117 23.6909C24.2876 23.7669 24.3303 23.8698 24.3303 23.9772C24.3303 24.0846 24.2876 24.1875 24.2117 24.2634C24.1358 24.3394 24.0328 24.382 23.9255 24.382H23.1158C23.0085 24.382 22.9055 24.3394 22.8296 24.2634C22.7537 24.1875 22.711 24.0846 22.711 23.9772C22.711 23.8698 22.7537 23.7669 22.8296 23.6909C22.9055 23.615 23.0085 23.5724 23.1158 23.5724ZM21.9014 21.5483V21.9531C21.9014 22.0605 21.8587 22.1635 21.7828 22.2394C21.7069 22.3153 21.6039 22.3579 21.4966 22.3579C21.3892 22.3579 21.2863 22.3153 21.2103 22.2394C21.1344 22.1635 21.0918 22.0605 21.0918 21.9531V21.5483H20.687C20.5796 21.5483 20.4766 21.5057 20.4007 21.4297C20.3248 21.3538 20.2821 21.2509 20.2821 21.1435C20.2821 21.0361 20.3248 20.9332 20.4007 20.8572C20.4766 20.7813 20.5796 20.7387 20.687 20.7387H22.3062C22.4136 20.7387 22.5165 20.7813 22.5925 20.8572C22.6684 20.9332 22.711 21.0361 22.711 21.1435C22.711 21.2509 22.6684 21.3538 22.5925 21.4297C22.5165 21.5057 22.4136 21.5483 22.3062 21.5483H21.9014ZM24.3303 26.0013H22.711C22.6037 26.0013 22.5007 25.9586 22.4248 25.8827C22.3489 25.8068 22.3062 25.7038 22.3062 25.5964C22.3062 25.4891 22.3489 25.3861 22.4248 25.3102C22.5007 25.2343 22.6037 25.1916 22.711 25.1916H24.3303C24.4376 25.1916 24.5406 25.2343 24.6165 25.3102C24.6924 25.3861 24.7351 25.4891 24.7351 25.5964C24.7351 25.7038 24.6924 25.8068 24.6165 25.8827C24.5406 25.9586 24.4376 26.0013 24.3303 26.0013ZM26.3543 21.5483H25.9495V21.9531C25.9495 22.0605 25.9069 22.1635 25.831 22.2394C25.755 22.3153 25.6521 22.3579 25.5447 22.3579C25.4374 22.3579 25.3344 22.3153 25.2585 22.2394C25.1826 22.1635 25.1399 22.0605 25.1399 21.9531V21.5483H24.7351C24.6277 21.5483 24.5248 21.5057 24.4488 21.4297C24.3729 21.3538 24.3303 21.2509 24.3303 21.1435C24.3303 21.0361 24.3729 20.9332 24.4488 20.8572C24.5248 20.7813 24.6277 20.7387 24.7351 20.7387H26.3543C26.4617 20.7387 26.5647 20.7813 26.6406 20.8572C26.7165 20.9332 26.7592 21.0361 26.7592 21.1435C26.7592 21.2509 26.7165 21.3538 26.6406 21.4297C26.5647 21.5057 26.4617 21.5483 26.3543 21.5483ZM20.7072 29.005L19.5737 30.1385L19.8976 30.7052C19.9431 30.4994 20.0672 30.3195 20.2433 30.2039C20.4195 30.0882 20.6339 30.0458 20.8408 30.0858C20.8854 30.0935 20.9281 30.11 20.9663 30.1344L22.3345 30.9359C22.4365 30.8389 22.5508 30.7559 22.6746 30.689L20.7072 29.005Z" fill="black"/>
<path d="M3.59691 17.4816L3.17811 18.7894L0.0877714 17.7996L0.487714 16.5506C0.590914 16.2285 0.737657 16.0195 0.928114 15.9233C1.11891 15.8261 1.34331 15.8187 1.60131 15.9014C1.72029 15.9394 1.8204 15.9902 1.90166 16.0533C1.98171 16.116 2.04223 16.188 2.08303 16.2691C2.12246 16.351 2.13874 16.441 2.13206 16.5391C2.16891 16.4779 2.21674 16.4215 2.27537 16.3697C2.33297 16.3176 2.40137 16.2777 2.48074 16.2499C2.56011 16.2221 2.64754 16.2081 2.74303 16.2077C2.83731 16.207 2.94 16.2243 3.05109 16.26C3.25646 16.3258 3.41057 16.4141 3.5136 16.525C3.6156 16.6356 3.67166 16.7712 3.68211 16.9317C3.69189 17.0907 3.66343 17.274 3.59691 17.4816ZM2.10943 17.6529L2.76411 17.8625L2.94531 17.297C2.96503 17.2353 2.96897 17.1789 2.9568 17.1279C2.94583 17.0774 2.91977 17.0331 2.87863 16.9954C2.83646 16.9572 2.77834 16.9262 2.70429 16.9023C2.63691 16.8807 2.57589 16.8742 2.5212 16.8828C2.46651 16.8912 2.41971 16.9121 2.38046 16.9454C2.34017 16.9783 2.31017 17.0256 2.29046 17.0871L2.10943 17.6529ZM0.9648 17.2862L1.56394 17.4782L1.73331 16.9497C1.75629 16.8778 1.74566 16.8125 1.70143 16.7537C1.65823 16.6954 1.59343 16.6524 1.50703 16.6246C1.39371 16.5883 1.30766 16.5867 1.24869 16.6198C1.19091 16.6533 1.15234 16.7004 1.13297 16.7611L0.9648 17.2862Z" fill="black"/>
<path d="M4.40811 15.4941L4.06046 16.1897L1.59926 13.8555L2.02097 13.0113L5.36554 13.5778L5.01549 14.2783L4.41326 14.1631L3.95263 15.0849L4.40811 15.4941ZM2.388 13.728L3.42531 14.6258L3.72943 14.017L2.388 13.728Z" fill="black"/>
<path d="M6.06994 12.5362L5.64051 13.159L2.9688 11.3172L3.74331 10.1938C3.82097 10.0814 3.90651 9.98726 4.00029 9.91148C4.09234 9.83606 4.19571 9.78583 4.31057 9.76046C4.42543 9.73508 4.55314 9.74177 4.69406 9.78017C4.83394 9.81806 4.99029 9.8964 5.16309 10.0154C5.28051 10.0963 5.37343 10.1762 5.44217 10.2552C5.50989 10.3334 5.55926 10.4103 5.59011 10.4859C5.62166 10.5607 5.63932 10.6335 5.64309 10.7049C5.64686 10.7762 5.64497 10.8465 5.63726 10.9155L7.01794 11.1612L6.58149 11.7943L5.35543 11.5392C5.33863 11.5634 5.31943 11.5903 5.29783 11.6198C5.2752 11.6486 5.25412 11.6769 5.23474 11.705C5.21469 11.7341 5.19429 11.7636 5.17354 11.7938C5.1528 11.8238 5.13343 11.8521 5.11526 11.8781L6.06994 12.5362ZM3.95709 11.0796L4.62343 11.539L4.89137 11.1506C4.92154 11.1069 4.94211 11.0645 4.95309 11.0235C4.96577 10.9822 4.96697 10.9401 4.95651 10.8972C4.94451 10.8545 4.92137 10.8122 4.88743 10.77C4.85177 10.7283 4.80206 10.6853 4.73794 10.6413C4.67297 10.5965 4.61503 10.5651 4.56446 10.5473C4.51406 10.5312 4.46966 10.5271 4.43126 10.535C4.39131 10.5432 4.35429 10.5605 4.32017 10.5871C4.28674 10.6126 4.25503 10.6474 4.22486 10.6911L3.95709 11.0796Z" fill="black"/>
<path d="M8.31326 9.74931L7.38411 10.7606L4.9944 8.56526L5.88171 7.59943C6.11057 7.35034 6.33154 7.22211 6.54463 7.21491C6.75857 7.20669 6.96531 7.29429 7.16486 7.47754C7.25691 7.56206 7.32651 7.65 7.37383 7.74137C7.42029 7.83206 7.44497 7.92274 7.44789 8.01343C7.44926 8.10429 7.42629 8.19274 7.37897 8.27914C7.43811 8.23903 7.50514 8.20783 7.58023 8.18554C7.65429 8.1624 7.73314 8.15486 7.81697 8.16291C7.90063 8.17097 7.986 8.19497 8.07274 8.23457C8.15863 8.27349 8.24451 8.33229 8.3304 8.41131C8.48914 8.5572 8.592 8.70206 8.63897 8.84606C8.68509 8.9892 8.67926 9.13577 8.62131 9.28594C8.56337 9.4344 8.46069 9.58886 8.31326 9.74931ZM6.89109 9.28046L7.39749 9.74554L7.79914 9.30823C7.84303 9.26057 7.87011 9.21103 7.8804 9.15977C7.89154 9.1092 7.88657 9.05811 7.86514 9.00651C7.84286 8.95406 7.80309 8.9016 7.746 8.84897C7.69389 8.80114 7.64126 8.7696 7.58811 8.75434C7.53497 8.73909 7.48354 8.7384 7.43417 8.75211C7.38377 8.76514 7.3368 8.79549 7.29291 8.84314L6.89109 9.28046ZM6.006 8.46737L6.46937 8.89303L6.8448 8.48434C6.89589 8.4288 6.91354 8.36503 6.89811 8.2932C6.88337 8.22206 6.84274 8.15589 6.77571 8.09451C6.68811 8.01394 6.61063 7.9764 6.54343 7.98171C6.47691 7.98789 6.42223 8.01446 6.37903 8.06126L6.006 8.46737Z" fill="black"/>
<path d="M10.1085 8.11749C10.0548 8.16171 9.98691 8.208 9.90429 8.25617C9.82166 8.30606 9.73149 8.34017 9.63343 8.35851C9.53537 8.37686 9.43183 8.36606 9.32263 8.32629C9.21429 8.28583 9.10543 8.19926 8.99589 8.06674L7.88503 6.72171C7.78817 6.60446 7.72611 6.49149 7.69886 6.38263C7.67074 6.27274 7.66749 6.17246 7.68857 6.0816C7.70983 5.99074 7.7484 5.90606 7.80446 5.82771C7.85966 5.74851 7.92103 5.68097 7.98806 5.6256C8.16789 5.47697 8.3268 5.35114 8.4648 5.24794C8.60194 5.14389 8.72349 5.05337 8.8296 4.97623C8.93743 4.89943 9.03429 4.83086 9.12034 4.77051L9.5268 5.26234L8.60966 6.01989C8.5488 6.07011 8.51314 6.12326 8.50286 6.17931C8.49257 6.2352 8.51246 6.29366 8.56269 6.35451L8.7912 6.63103L9.76252 5.88377L10.1419 6.34303L9.22234 7.15303L9.43954 7.416C9.48086 7.46589 9.52046 7.49811 9.55834 7.51269C9.59794 7.52726 9.63652 7.53051 9.67423 7.52246C9.7128 7.51354 9.74794 7.49606 9.77966 7.46966L10.7131 6.69874L11.1171 7.18783C11.0271 7.28057 10.925 7.38171 10.8108 7.49143C10.6975 7.60029 10.5797 7.70829 10.4573 7.8156C10.3351 7.9212 10.2189 8.02183 10.1085 8.11749Z" fill="black"/>
<path d="M12.1531 6.60583L11.4861 7.0056L10.6653 3.71434L11.4747 3.22903L13.9905 5.50457L13.319 5.90708L12.8729 5.48606L11.989 6.01577L12.1531 6.60583ZM11.399 4.0308L11.7912 5.34531L12.3747 4.99543L11.399 4.0308Z" fill="black"/>
<path d="M15.1443 5.00469L14.4475 5.29903L13.1846 2.30983L14.4415 1.77891C14.5673 1.72577 14.6902 1.69234 14.8097 1.6788C14.9278 1.66474 15.0422 1.67777 15.1526 1.71823C15.263 1.75851 15.3672 1.83274 15.4654 1.94091C15.5631 2.04806 15.6528 2.19823 15.7344 2.39143C15.7899 2.52274 15.8254 2.64017 15.841 2.74354C15.8561 2.84589 15.8563 2.93726 15.8417 3.01766C15.8282 3.09754 15.8038 3.16869 15.7687 3.23074C15.7335 3.29297 15.6941 3.35109 15.6506 3.40543L16.6827 4.35463L15.9746 4.65377L15.0777 3.77983C15.0506 3.79131 15.0199 3.80366 14.9858 3.81669C14.9511 3.82869 14.9182 3.84137 14.8867 3.85474C14.8541 3.86846 14.821 3.88251 14.7874 3.89674C14.7538 3.91097 14.7223 3.92434 14.693 3.93669L15.1443 5.00469ZM14.1454 2.64069L14.4605 3.3864L14.8953 3.20263C14.9441 3.18206 14.9842 3.15737 15.0156 3.12874C15.0485 3.1008 15.0722 3.06583 15.0864 3.024C15.0991 2.98149 15.1025 2.93349 15.0965 2.87966C15.089 2.82531 15.0699 2.7624 15.0396 2.69074C15.0089 2.61806 14.9769 2.56046 14.9438 2.51829C14.91 2.47766 14.8747 2.45023 14.8382 2.43634C14.8001 2.42177 14.7595 2.41646 14.7165 2.42057C14.6745 2.42417 14.629 2.43634 14.5802 2.45691L14.1454 2.64069Z" fill="black"/>
<path d="M17.9686 3.97217L17.2452 4.19314L16.2974 1.0896L17.021 0.868629L17.9686 3.97217Z" fill="black"/>
<path d="M19.2394 3.71314L18.4737 3.84806L18.8837 0.480857L19.8132 0.317143L21.3492 3.34166L20.5781 3.47743L20.3121 2.92491L19.2972 3.10371L19.2394 3.71314ZM19.4558 1.03886L19.3521 2.40669L20.0223 2.28857L19.4558 1.03886Z" fill="black"/>
<path d="M24.9442 3.3252L24.0012 3.28457L23.1538 0L23.9361 0.0337714L24.5115 2.48743L25.2975 0.0924L26.0709 0.125657L24.9442 3.3252Z" fill="black"/>
<path d="M26.8227 3.534L26.0587 3.38897L27.6345 0.3852L28.5617 0.561257L28.9272 3.9336L28.158 3.78754L28.1049 3.17657L27.0926 2.9844L26.8227 3.534ZM27.972 1.10949L27.3907 2.352L28.0593 2.47886L27.972 1.10949Z" fill="black"/>
<path d="M30.1234 4.3332L29.4117 4.08771L30.4695 1.02L31.0359 1.21526L31.5705 3.47657L32.2106 1.62034L32.9258 1.86686L31.8679 4.93457L31.2965 4.7376L30.7618 2.48177L30.1234 4.3332Z" fill="black"/>
<path d="M33.2669 5.68543C33.0888 5.59131 32.9619 5.47834 32.8862 5.34634C32.8116 5.21503 32.777 5.06743 32.7823 4.90371C32.7876 4.73983 32.8241 4.56343 32.8922 4.374C32.9597 4.1832 33.0485 3.98349 33.1584 3.7752C33.2772 3.55011 33.3989 3.3552 33.5234 3.19029C33.6489 3.02606 33.7836 2.90074 33.9278 2.81434C34.0726 2.72691 34.2348 2.68731 34.4143 2.69554C34.5934 2.70223 34.7964 2.76549 35.0235 2.88549C35.1653 2.9604 35.2877 3.0324 35.3913 3.10149C35.4946 3.17074 35.5893 3.24137 35.675 3.31337C35.7598 3.38486 35.8459 3.46029 35.9333 3.53983L35.6601 4.05703C35.6066 4.01949 35.5383 3.97337 35.4552 3.91886C35.3715 3.86537 35.2766 3.80657 35.1706 3.74263C35.0645 3.67851 34.951 3.61474 34.8302 3.5508C34.6749 3.46886 34.5447 3.43269 34.4397 3.44246C34.333 3.45274 34.2338 3.51429 34.1422 3.62709C34.0497 3.73937 33.9447 3.90651 33.8273 4.12851C33.7365 4.30046 33.6698 4.44446 33.6273 4.56051C33.5835 4.67606 33.5625 4.77274 33.5638 4.85074C33.5647 4.92977 33.5871 4.9956 33.6314 5.0484C33.6744 5.10051 33.7346 5.14697 33.8117 5.1876C33.9117 5.2404 34.0073 5.28291 34.0982 5.31497C34.1887 5.34549 34.2617 5.36743 34.3173 5.38063L34.5583 4.92429L34.1067 4.68583L34.3865 4.15594C34.4467 4.1784 34.5161 4.20703 34.595 4.242C34.6738 4.27697 34.7565 4.31469 34.843 4.35514C34.9286 4.39509 35.0062 4.43331 35.076 4.47017C35.1657 4.51749 35.2442 4.56034 35.3119 4.59874C35.3801 4.63611 35.441 4.67229 35.4945 4.70726L34.6145 6.3732L34.1114 6.10749L34.1246 5.86663C34.0327 5.874 33.9072 5.86697 33.7479 5.84554C33.5897 5.82463 33.4294 5.77131 33.2669 5.68543Z" fill="black"/>
<path d="M36.1836 7.53086C36.0386 7.42389 35.9117 7.3128 35.8034 7.19777C35.6947 7.08103 35.616 6.95554 35.5671 6.82149C35.5183 6.68726 35.5092 6.54377 35.5399 6.39069C35.5707 6.23777 35.6518 6.07217 35.7835 5.89389L37.0812 4.13434L37.6899 4.58331L36.3943 6.34011C36.3369 6.41794 36.3079 6.49303 36.307 6.56554C36.3055 6.63909 36.329 6.71057 36.3773 6.78C36.425 6.85029 36.4944 6.91903 36.5854 6.98606C36.6746 7.05189 36.7598 7.09714 36.841 7.122C36.9226 7.1484 36.9977 7.14977 37.0666 7.12577C37.1357 7.10349 37.199 7.0536 37.2562 6.97577L38.5519 5.21914L39.1606 5.66811L37.8629 7.42766C37.7314 7.60594 37.5977 7.7328 37.4616 7.80806C37.3246 7.88263 37.1842 7.91606 37.0407 7.90834C36.8981 7.90131 36.756 7.86377 36.6142 7.79571C36.4731 7.7268 36.3297 7.63851 36.1836 7.53086Z" fill="black"/>
<path d="M38.0042 9.04577L37.4561 8.49394L40.4549 6.9084L41.1199 7.578L39.5138 10.5657L38.9619 10.0102L39.2637 9.47623L38.5377 8.74509L38.0042 9.04577ZM40.3234 7.69646L39.1413 8.39229L39.6207 8.8752L40.3234 7.69646Z" fill="black"/>
<path d="M40.2749 11.5661L39.8223 10.9599L42.4222 9.01817L43.2387 10.1114C43.3205 10.2209 43.3822 10.3322 43.4239 10.4451C43.4659 10.5564 43.4805 10.6706 43.4678 10.7875C43.4551 10.9044 43.4079 11.0234 43.3263 11.1446C43.2458 11.2651 43.1215 11.388 42.9535 11.5135C42.8393 11.5989 42.7337 11.6614 42.637 11.7014C42.5412 11.7405 42.4526 11.7626 42.3711 11.7675C42.2902 11.7735 42.2155 11.7669 42.1466 11.7477C42.0778 11.7285 42.0118 11.7041 41.9487 11.6748L41.2743 12.9043L40.8142 12.2883L41.4482 11.2082C41.4305 11.1845 41.4113 11.1578 41.3904 11.1279C41.3705 11.0973 41.3503 11.0683 41.3297 11.0409C41.3086 11.0126 41.287 10.9838 41.2653 10.9545C41.2433 10.9251 41.2229 10.8979 41.2039 10.8723L40.2749 11.5661ZM42.331 10.0305L41.6825 10.5147L41.9649 10.8929C41.9966 10.9354 42.0302 10.9685 42.0655 10.9922C42.1006 11.0175 42.1401 11.0321 42.1841 11.0359C42.2283 11.0381 42.276 11.0299 42.3266 11.011C42.3775 10.9906 42.4341 10.9572 42.4965 10.9106C42.5597 10.8633 42.6079 10.8185 42.641 10.7762C42.6723 10.7337 42.6905 10.6929 42.6953 10.6539C42.7003 10.6135 42.6957 10.5727 42.6814 10.5321C42.6679 10.4923 42.6453 10.451 42.6135 10.4085L42.331 10.0305Z" fill="black"/>
<path d="M42.2038 14.6086L41.5335 13.3757L44.3844 11.8257L45.0549 13.0586C45.1646 13.2605 45.2184 13.4458 45.2162 13.6145C45.2151 13.7827 45.1714 13.9406 45.0854 14.088C44.9997 14.2339 44.8776 14.3693 44.719 14.4945C44.562 14.6201 44.381 14.7386 44.1759 14.8502C43.8489 15.0279 43.5605 15.1365 43.3109 15.1755C43.0618 15.2157 42.8463 15.1881 42.6643 15.0926C42.4812 14.9976 42.3278 14.8363 42.2038 14.6086ZM44.1495 12.8145L42.4896 13.717L42.7632 14.22C42.8201 14.3246 42.8945 14.3913 42.9867 14.4204C43.0785 14.4483 43.1931 14.4423 43.331 14.4022C43.4688 14.3621 43.6308 14.2915 43.8171 14.1902C43.9942 14.094 44.1322 14.0061 44.2313 13.9269C44.3319 13.848 44.4009 13.775 44.4381 13.7078C44.4763 13.6401 44.4926 13.5749 44.4867 13.5123C44.4804 13.4487 44.4591 13.3838 44.4231 13.3176L44.1495 12.8145Z" fill="black"/>
<path d="M43.1417 16.6893L42.8815 15.9564L46.2699 15.8014L46.5859 16.691L43.8585 18.7078L43.5965 17.97L44.0971 17.6158L43.7523 16.6449L43.1417 16.6893ZM45.8148 16.4582L44.4489 16.5833L44.6765 17.2245L45.8148 16.4582Z" fill="black"/>
<path d="M1.35686 32.1705L0.937886 30.8626L4.02823 29.8728L4.42834 31.1217C4.53154 31.4438 4.5336 31.6992 4.43434 31.8881C4.3356 32.0781 4.15714 32.2145 3.89914 32.2971C3.78017 32.3352 3.66926 32.3522 3.56657 32.3479C3.46491 32.3433 3.37389 32.3199 3.29349 32.2776C3.21394 32.2339 3.14829 32.1701 3.09669 32.0865C3.10217 32.1578 3.09617 32.2315 3.07851 32.3076C3.06189 32.3834 3.02949 32.4557 2.98097 32.5243C2.93246 32.593 2.86954 32.6553 2.79206 32.7111C2.71577 32.7665 2.622 32.8119 2.51091 32.8474C2.30554 32.9133 2.1288 32.9309 1.98034 32.9006C1.83309 32.8697 1.70863 32.7921 1.60697 32.6674C1.50669 32.5437 1.42337 32.3779 1.35686 32.1705ZM2.46806 31.1667L1.81337 31.3766L1.99457 31.9421C2.01429 32.0038 2.04394 32.0518 2.08337 32.0863C2.12177 32.1211 2.16857 32.1418 2.22394 32.1489C2.28051 32.1555 2.34583 32.147 2.41989 32.1231C2.48726 32.1015 2.54074 32.0715 2.58034 32.0328C2.61994 31.9941 2.646 31.95 2.65851 31.9001C2.67223 31.8499 2.66914 31.794 2.64926 31.7323L2.46806 31.1667ZM3.61269 30.8002L3.01354 30.9921L3.18274 31.5206C3.20571 31.5924 3.25234 31.6394 3.32246 31.6615C3.39154 31.6839 3.4692 31.6814 3.55577 31.6536C3.66909 31.6173 3.74006 31.5686 3.76869 31.5074C3.79629 31.4465 3.80023 31.3858 3.78086 31.3253L3.61269 30.8002Z" fill="black"/>
<path d="M2.30383 34.4918L1.95617 33.7961L5.30074 33.2295L5.72246 34.0738L3.26126 36.408L2.91137 35.7075L3.36514 35.2951L2.90451 34.3733L2.30383 34.4918ZM4.92891 33.9369L3.58834 34.2273L3.89246 34.836L4.92891 33.9369Z" fill="black"/>
<path d="M4.13331 37.7333L3.70389 37.1105L6.37543 35.2687L7.14994 36.3919C7.2276 36.5043 7.28503 36.6178 7.3224 36.7325C7.36011 36.8453 7.3704 36.9598 7.35343 37.0761C7.33629 37.1923 7.28469 37.3095 7.19846 37.4277C7.11343 37.5451 6.98451 37.6632 6.81189 37.7822C6.69446 37.8631 6.5868 37.9217 6.48857 37.9579C6.39137 37.9934 6.30206 38.0121 6.22029 38.0141C6.1392 38.017 6.0648 38.0076 5.99674 37.9857C5.92869 37.9639 5.86371 37.9371 5.80183 37.9054L5.08131 39.1085L4.64486 38.4754L5.31926 37.4201C5.30246 37.3959 5.28429 37.3683 5.26457 37.3377C5.24571 37.3063 5.22669 37.2765 5.20714 37.2483C5.18709 37.2192 5.16669 37.1897 5.14594 37.1597C5.1252 37.1297 5.10583 37.1014 5.08783 37.0752L4.13331 37.7333ZM6.24617 36.2767L5.57966 36.7361L5.8476 37.1246C5.87777 37.1683 5.91 37.2026 5.94429 37.2276C5.9784 37.2542 6.01731 37.2703 6.0612 37.2758C6.10543 37.2797 6.15309 37.2732 6.20451 37.2564C6.25611 37.2379 6.31406 37.2067 6.37817 37.1625C6.44314 37.1177 6.49303 37.0747 6.52749 37.0335C6.56057 36.9922 6.58011 36.9521 6.58646 36.9135C6.59297 36.8733 6.58989 36.8325 6.5772 36.7911C6.5652 36.7509 6.54411 36.7089 6.51394 36.6651L6.24617 36.2767Z" fill="black"/>
<path d="M6.58097 40.7765L5.65183 39.7653L8.04154 37.5699L8.92886 38.5356C9.15771 38.7847 9.26674 39.0156 9.25594 39.2287C9.246 39.4426 9.14126 39.6411 8.94171 39.8246C8.84966 39.9091 8.75623 39.971 8.66126 40.0104C8.56714 40.049 8.47457 40.0659 8.38389 40.0611C8.2932 40.0548 8.20697 40.0245 8.12503 39.9701C8.15983 40.0325 8.18537 40.1019 8.20131 40.1786C8.21811 40.2543 8.21897 40.3335 8.20371 40.4163C8.18846 40.4991 8.15743 40.5819 8.11063 40.6649C8.06469 40.7472 7.99869 40.8278 7.91263 40.9068C7.75389 41.0527 7.6008 41.1429 7.45337 41.1775C7.3068 41.2113 7.16126 41.1931 7.01657 41.1228C6.8736 41.0525 6.7284 40.9371 6.58097 40.7765ZM7.16846 39.3993L6.66223 39.8643L7.06389 40.3017C7.10777 40.3493 7.15474 40.3805 7.20514 40.3953C7.25451 40.4107 7.30577 40.41 7.35909 40.393C7.41326 40.3754 7.46897 40.3401 7.52606 40.2874C7.57817 40.2396 7.614 40.1899 7.63371 40.1381C7.65343 40.0863 7.65857 40.0353 7.64897 39.985C7.64023 39.9338 7.614 39.8842 7.57029 39.8366L7.16846 39.3993ZM8.05354 38.5862L7.59017 39.0118L7.9656 39.4205C8.01669 39.4761 8.07857 39.499 8.1516 39.4896C8.2236 39.481 8.2932 39.4461 8.35989 39.3847C8.44749 39.3041 8.49154 39.2302 8.49189 39.1625C8.49137 39.0958 8.4696 39.0389 8.42657 38.9921L8.05354 38.5862Z" fill="black"/>
<path d="M8.57657 42.6715C8.52291 42.6273 8.46463 42.5691 8.40189 42.4973C8.33726 42.4257 8.28686 42.3434 8.25034 42.2506C8.21383 42.1579 8.20491 42.0542 8.22309 41.9393C8.24229 41.8253 8.30674 41.7021 8.41629 41.5694L9.52731 40.2243C9.62417 40.1071 9.72343 40.0248 9.82526 39.9777C9.92777 39.9293 10.0257 39.907 10.1189 39.9106C10.2122 39.9142 10.3025 39.9362 10.3901 39.9765C10.4784 40.0157 10.5561 40.0632 10.6233 40.1187C10.8031 40.2674 10.9567 40.3995 11.0842 40.5154C11.2123 40.6305 11.3242 40.7328 11.4197 40.8225C11.5155 40.9138 11.6011 40.9959 11.6769 41.0691L11.2704 41.5611L10.3534 40.8036C10.2926 40.7534 10.2338 40.7283 10.1767 40.7287C10.1198 40.729 10.0663 40.7597 10.0161 40.8206L9.78754 41.0973L10.7049 41.91L10.3255 42.3693L9.3564 41.6191L9.1392 41.8822C9.09788 41.9321 9.07371 41.9772 9.06668 42.0171C9.05983 42.0588 9.06394 42.0974 9.07886 42.1327C9.0948 42.1689 9.1188 42.2001 9.15069 42.2263L10.0841 42.9974L9.67988 43.4866C9.57188 43.4157 9.45326 43.3346 9.324 43.243C9.1956 43.1523 9.06737 43.057 8.93897 42.9571C8.81228 42.857 8.69143 42.7618 8.57657 42.6715Z" fill="black"/>
<path d="M10.9438 44.3463L10.2768 43.9466L12.7925 41.671L13.602 42.1563L12.7812 45.4476L12.1095 45.0451L12.2705 44.4533L11.3868 43.9236L10.9438 44.3463ZM12.8592 42.4673L11.8848 43.433L12.4685 43.7827L12.8592 42.4673Z" fill="black"/>
<path d="M14.2287 46.0966L13.5319 45.8023L14.7948 42.8131L16.0517 43.344C16.1775 43.3971 16.2871 43.4619 16.3802 43.5384C16.4726 43.6133 16.5429 43.7043 16.591 43.8117C16.639 43.919 16.6586 44.0455 16.6493 44.1914C16.6406 44.3361 16.5955 44.5051 16.5139 44.6981C16.4583 44.8294 16.399 44.9367 16.3356 45.0201C16.2727 45.1022 16.2074 45.1661 16.1397 45.2115C16.073 45.2575 16.0049 45.2895 15.9358 45.3079C15.8667 45.3261 15.7977 45.3384 15.7284 45.3449L15.7673 46.7467L15.0591 46.4474L15.0605 45.1951C15.0334 45.1836 15.0033 45.1702 14.97 45.155C14.9373 45.1385 14.9052 45.1238 14.8738 45.1104C14.8413 45.0967 14.8082 45.0826 14.7744 45.0686C14.7408 45.0543 14.7093 45.041 14.6801 45.0286L14.2287 46.0966ZM15.2277 43.7326L14.9126 44.4783L15.3473 44.6619C15.3962 44.6825 15.4418 44.6942 15.4841 44.6967C15.5271 44.7009 15.5686 44.6935 15.6086 44.6745C15.648 44.6541 15.6847 44.6229 15.7191 44.5812C15.7527 44.5378 15.7848 44.4804 15.815 44.4087C15.8457 44.3361 15.8647 44.273 15.8717 44.2197C15.8774 44.167 15.8724 44.1228 15.857 44.0868C15.8409 44.0493 15.8163 44.0165 15.7833 43.9886C15.7514 43.961 15.7111 43.937 15.6622 43.9162L15.2277 43.7326Z" fill="black"/>
<path d="M17.2817 47.212L16.5581 46.991L17.5059 43.8874L18.2294 44.1084L17.2817 47.212Z" fill="black"/>
<path d="M18.8314 47.5378L18.0655 47.4029L19.6015 44.3786L20.531 44.5423L20.941 47.9095L20.1699 47.7735L20.1087 47.1634L19.0941 46.9846L18.8314 47.5378ZM19.9485 45.0982L19.3838 46.3483L20.0539 46.4664L19.9485 45.0982Z" fill="black"/>
<path d="M25.0454 47.9594L24.1025 48L22.9757 44.8005L23.7579 44.7669L24.5422 47.1619L25.1194 44.7082L25.8929 44.6748L25.0454 47.9594Z" fill="black"/>
<path d="M27.2614 47.7113L26.4974 47.8565L26.8629 44.484L27.7901 44.3081L29.3659 47.3119L28.5967 47.4579L28.3234 46.9089L27.311 47.101L27.2614 47.7113ZM27.4423 45.0343L27.3567 46.4035L28.0253 46.2765L27.4423 45.0343Z" fill="black"/>
<path d="M30.8902 46.825L30.1785 47.0705L29.1207 44.0028L29.6871 43.8074L31.5019 45.2589L30.8618 43.4025L31.577 43.1558L32.6347 46.2237L32.0633 46.4206L30.2518 44.9738L30.8902 46.825Z" fill="black"/>
<path d="M34.3853 45.3665C34.2072 45.4606 34.0423 45.5018 33.8907 45.4898C33.7402 45.4773 33.5988 45.4228 33.4665 45.3262C33.3341 45.2296 33.209 45.0998 33.091 44.9369C32.9714 44.7735 32.8565 44.5877 32.7465 44.3793C32.6277 44.1542 32.5351 43.9438 32.4691 43.7482C32.4041 43.5519 32.3765 43.3701 32.3866 43.2021C32.3961 43.0332 32.4547 42.8769 32.5627 42.7334C32.6691 42.5892 32.8359 42.4572 33.0631 42.337C33.2049 42.2621 33.3334 42.2016 33.4488 42.1553C33.5642 42.109 33.6759 42.0706 33.7838 42.0403C33.8906 42.0105 34.0015 41.982 34.1163 41.9547L34.3896 42.472C34.3284 42.4949 34.2519 42.5254 34.1599 42.5633C34.0685 42.6022 33.9665 42.6475 33.8539 42.6989C33.7413 42.7505 33.6243 42.8081 33.5035 42.8721C33.3482 42.954 33.245 43.0413 33.1939 43.1335C33.1423 43.2274 33.1371 43.344 33.1788 43.4834C33.2193 43.6233 33.2983 43.8041 33.4154 44.0259C33.5062 44.1979 33.5875 44.3342 33.6593 44.4348C33.7301 44.5359 33.7982 44.6079 33.8633 44.6508C33.9291 44.6947 33.9962 44.7132 34.0646 44.7063C34.1319 44.7002 34.2041 44.6767 34.2813 44.6359C34.3812 44.5831 34.4702 44.5281 34.548 44.4711C34.6241 44.4135 34.6834 44.3655 34.7258 44.3271L34.4847 43.8708L34.0332 44.1094L33.7533 43.5795C33.8057 43.5425 33.8685 43.5014 33.9418 43.4559C34.0152 43.4105 34.0929 43.3635 34.1751 43.3149C34.2562 43.2667 34.3318 43.2242 34.4016 43.1873C34.4913 43.14 34.571 43.0992 34.6407 43.0649C34.71 43.0296 34.7743 42.9998 34.8333 42.9753L35.7132 44.6412L35.2099 44.9071L35.0186 44.7603C34.973 44.8404 34.8963 44.9402 34.7889 45.0595C34.6824 45.1783 34.5478 45.2806 34.3853 45.3665Z" fill="black"/>
<path d="M37.6051 43.3308C37.4601 43.4378 37.3164 43.5261 37.1745 43.5957C37.0308 43.6649 36.8877 43.7031 36.745 43.7102C36.6024 43.7172 36.4625 43.6834 36.3255 43.6089C36.1886 43.5343 36.0542 43.4078 35.9229 43.2297L34.6251 41.4701L35.2339 41.021L36.5295 42.7778C36.587 42.8556 36.6501 42.9055 36.7191 42.9278C36.7889 42.9509 36.8642 42.9497 36.9447 42.9238C37.026 42.899 37.1122 42.853 37.2033 42.786C37.2924 42.7202 37.3608 42.6523 37.4085 42.5818C37.4578 42.5117 37.4813 42.4402 37.4787 42.3675C37.4779 42.295 37.4487 42.2198 37.3915 42.1419L36.0958 40.3853L36.7047 39.9363L38.0025 41.6959C38.1339 41.8742 38.2155 42.0394 38.2473 42.1917C38.2781 42.3446 38.2685 42.4886 38.2186 42.6233C38.1698 42.7575 38.0919 42.8822 37.9851 42.9975C37.8777 43.1119 37.751 43.223 37.6051 43.3308Z" fill="black"/>
<path d="M39.6732 41.5462L39.1251 42.0981L37.5189 39.1104L38.184 38.4406L41.1826 40.0263L40.631 40.5819L40.0951 40.2838L39.3689 41.015L39.6732 41.5462ZM38.3079 39.2364L39.0118 40.4138L39.4915 39.9309L38.3079 39.2364Z" fill="black"/>
<path d="M42.1596 38.7759L41.7069 39.3821L39.107 37.4402L39.9235 36.347C40.0053 36.2374 40.0944 36.1467 40.1909 36.0746C40.2857 36.0027 40.391 35.9563 40.5065 35.9354C40.6222 35.9145 40.7498 35.9258 40.8891 35.9697C41.0275 36.0127 41.1807 36.097 41.3487 36.2225C41.4629 36.3079 41.5529 36.3912 41.6187 36.4726C41.6835 36.5534 41.7298 36.6321 41.7578 36.7089C41.7864 36.7846 41.8013 36.8583 41.8023 36.9297C41.8034 37.0011 41.7989 37.0713 41.7886 37.14L43.159 37.4378L42.6989 38.0537L41.4835 37.7525C41.4658 37.7762 41.4456 37.8022 41.4228 37.8309C41.399 37.8586 41.377 37.8864 41.3565 37.9137C41.3354 37.9419 41.3138 37.9707 41.292 38.0001C41.2701 38.0294 41.2497 38.0566 41.2306 38.0822L42.1596 38.7759ZM40.1033 37.2403L40.752 37.7247L41.0343 37.3466C41.0661 37.3041 41.0883 37.2626 41.1009 37.2219C41.1151 37.1811 41.1178 37.1391 41.1091 37.0958C41.0986 37.0527 41.0772 37.0095 41.045 36.9662C41.011 36.9231 40.9629 36.8784 40.9005 36.8318C40.8372 36.7845 40.7806 36.751 40.7306 36.7315C40.6809 36.7135 40.6366 36.7077 40.5979 36.714C40.5576 36.7207 40.5199 36.7366 40.4849 36.762C40.4506 36.7863 40.4175 36.8198 40.3858 36.8621L40.1033 37.2403Z" fill="black"/>
<path d="M44.2704 35.4494L43.6001 36.6823L40.7493 35.1322L41.4195 33.8995C41.5293 33.6975 41.6556 33.5517 41.7984 33.4617C41.9402 33.3711 42.0963 33.3219 42.2669 33.3141C42.4359 33.3067 42.6159 33.3355 42.8073 33.4006C42.9981 33.4641 43.1959 33.5517 43.4009 33.6629C43.728 33.8407 43.9759 34.0238 44.1446 34.2122C44.3138 34.3994 44.4077 34.5953 44.4264 34.8C44.4463 35.0052 44.3942 35.2217 44.2704 35.4494ZM41.7069 34.7919L43.3668 35.6943L43.6402 35.1914C43.6971 35.0868 43.7126 34.9879 43.6869 34.8948C43.6605 34.8027 43.5931 34.7097 43.4844 34.6157C43.3759 34.5218 43.2285 34.4242 43.0421 34.3229C42.865 34.2267 42.7164 34.1585 42.5961 34.1186C42.4752 34.0769 42.3765 34.0587 42.2997 34.0641C42.222 34.0687 42.1586 34.0906 42.1092 34.1295C42.0593 34.1695 42.0163 34.2226 41.9803 34.2888L41.7069 34.7919Z" fill="black"/>
<path d="M45.3583 33.0324L45.0981 33.7653L42.3708 31.7484L42.6866 30.8589L46.0752 31.0138L45.8131 31.7517L45.2013 31.7107L44.8563 32.6817L45.3583 33.0324ZM43.1381 31.5257L44.2771 32.2903L44.5047 31.649L43.1381 31.5257Z" fill="black"/>
<path d="M0 24.4673C0 23.7765 0.560057 23.2166 1.25074 23.2164C1.9416 23.2164 2.50149 23.7765 2.50149 24.4673C2.50149 25.1582 1.94143 25.7181 1.25074 25.7181C0.559886 25.7181 0 25.158 0 24.4673Z" fill="black"/>
<path d="M44.5406 24.4673C44.5406 23.7765 45.1006 23.2166 45.7913 23.2164C46.4822 23.2164 47.0421 23.7765 47.0421 24.4673C47.0421 25.1582 46.482 25.7181 45.7913 25.7181C45.1005 25.7181 44.5406 25.158 44.5406 24.4673Z" fill="black"/>
</svg>